<?xml version="1.0" standalone="no"?><!DOCTYPE svg PUBLIC "-//W3C//DTD SVG 1.1//EN" "http://www.w3.org/Graphics/SVG/1.1/DTD/svg11.dtd"><svg t="1509348818879" class="icon" style="" viewBox="0 0 1059 1024" version="1.1" xmlns="http://www.w3.org/2000/svg" p-id="4308" xmlns:xlink="http://www.w3.org/1999/xlink" width="206.8359375" height="200"><defs><style type="text/css"></style></defs><path d="M516.447475 0c-253.375 0-458.875 205.5-458.875 458.875 0 97.375 30.25 187.5 82 261.75l207-119.5c46.125-26.625 100.125-27 144.875-6V554.5h-100c-13.75 0-25-11.25-25-25s11.25-25 25-25h100v-75h-100c-13.75 0-25-11.25-25-25s11.25-25 25-25h81.125l-98.75-98.75c-9.75-9.75-9.75-25.625 0-35.375s25.625-9.75 35.375 0l107.375 107.375 107.375-107.375c9.75-9.75 25.625-9.75 35.375 0s9.75 25.625 0 35.375l-98.75 98.75H641.447475c13.75 0 25 11.25 25 25s-11.25 25-25 25h-100v75h100c13.75 0 25 11.25 25 25s-11.25 25-25 25h-100v78c6.875 7.75 13.125 16.375 18.5 25.75 18.75 32.5 24.5 69 18.875 103.375h34.625l198.25-198.25c43-43 104.75-55.625 158.875-38.125 3.125-21.75 4.75-43.875 4.75-66.5 0-253.25-205.5-458.75-458.875-458.75z" p-id="4309" fill="#ffb710"></path><path d="M997.322475 598.75c-41.5-41.5-108.75-41.5-150.25 0L634.072475 811.75H499.697475c33.25-33.125 41.5-85.75 17-128.375-29.375-50.875-94.375-68.25-145.125-38.875L82.197475 811.5h-77.75v212.5h711.5c9-4.875 17.5-11 25.125-18.625l256.375-256.375c41.375-41.375 41.375-108.75-0.125-150.25z" p-id="4310" fill="#ffb710"></path></svg>