<?xml version="1.0" standalone="no"?><!DOCTYPE svg PUBLIC "-//W3C//DTD SVG 1.1//EN" "http://www.w3.org/Graphics/SVG/1.1/DTD/svg11.dtd"><svg t="1501050764380" class="icon" style="" viewBox="0 0 1047 1024" version="1.1" xmlns="http://www.w3.org/2000/svg" p-id="3020" xmlns:xlink="http://www.w3.org/1999/xlink" width="65.4375" height="64"><defs><style type="text/css"></style></defs><path d="M514.844444 512m-512 0a512 512 0 1 0 1024 0 512 512 0 1 0-1024 0Z" fill="#EDEDED" p-id="3021"></path><path d="M363.39358 737.15358S457.702716 771.160494 569.204938 716.167901c115.041975-56.636049 81.035062-121.236543 104.549136-114.789136 0 0 7.458765 14.538272 1.769877 22.123457-5.815309 7.585185 7.332346-8.090864 21.491358-12.009876 14.285432-3.919012-0.25284 21.238519-9.987161 23.261234-9.734321 2.022716 26.295309-8.596543 25.91605 3.792593-0.25284 12.389136-19.974321 11.377778-27.306667 10.745679-7.205926-0.632099-15.42321 77.242469-174.20642 136.533333-158.65679 59.038025-140.578765 58.658765-148.037531-48.671605z" fill="#909090" p-id="3022"></path><path d="M447.841975 487.727407l-97.848889 12.009877s51.958519 177.746173-78.253827 231.600988c-76.231111 31.225679-127.683951 56.50963-156.254815 101.262222C209.414321 949.285926 353.40642 1024 514.844444 1024c3.539753 0 6.953086 0 10.49284-0.12642 36.535309-70.036543 63.336296-158.65679 37.673086-247.656296C506.500741 581.910123 447.841975 487.727407 447.841975 487.727407z" fill="#909090" p-id="3023"></path><path d="M423.442963 509.850864s125.787654 192.031605 71.55358 341.839013c-31.478519 86.344691-96.711111 126.293333-146.394074 144.624197C400.687407 1014.265679 456.564938 1024 514.844444 1024c7.332346 0 14.538272-0.12642 21.744198-0.505679 16.813827-34.765432 30.59358-76.104691 36.661728-123.764938 21.744198-175.597037-110.743704-384.948148-110.743703-384.948148s-22.249877-57.773827-39.063704-4.930371zM312.32 63.209877s-62.704198 107.077531 64.474074 205.811358l30.72-26.674568L312.32 63.209877z" fill="#666666" p-id="3024"></path><path d="M421.167407 252.965926S349.613827 96.079012 312.32 63.209877c0 0-14.285432 30.72-7.585185 74.714074 6.700247 43.488395 59.164444 108.847407 116.432592 115.041975z" fill="#909090" p-id="3025"></path><path d="M309.159506 237.416296l616.043457-20.48s-64.853333 275.595062-350.309136 296.075062c-225.785679 16.434568-224.900741-13.400494-224.900741-13.400494S292.345679 308.969877 309.159506 237.416296z" fill="#909090" p-id="3026"></path><path d="M439.877531 276.985679c24.904691 16.055309 31.984198 49.303704 16.055309 74.208395-16.055309 24.904691-49.303704 31.984198-74.208396 16.055309-24.904691-16.055309-32.489877-49.303704-16.055308-74.208395 15.928889-24.904691 49.303704-31.984198 74.208395-16.055309z" fill="#666666" p-id="3027"></path><path d="M438.992593 273.445926c24.904691 16.055309 32.489877 49.303704 16.055308 74.714074-16.055309 24.904691-49.303704 31.984198-74.208395 15.54963-24.904691-16.055309-31.984198-49.303704-16.055308-74.208395 15.928889-24.904691 49.303704-32.110617 74.208395-16.055309z" fill="#CCCCCC" p-id="3028"></path><path d="M414.97284 291.271111c11.124938 7.079506 14.285432 21.744198 7.079506 32.489877-7.079506 11.124938-21.744198 14.285432-32.489877 7.079506-11.124938-7.079506-14.285432-21.744198-7.079506-32.869136 7.205926-10.745679 21.870617-13.906173 32.489877-6.700247z" fill="#666666" p-id="3029"></path><path d="M409.916049 370.915556c17.066667 0 33.754074-8.470123 43.614815-23.640494 16.055309-24.399012 8.849383-56.50963-15.549629-72.438519l-8.849383-4.424691c3.160494 11.630617 1.769877 24.525432-3.792593 35.90321 1.264198 5.941728 0.25284 12.136296-3.286913 17.445926-4.551111 7.079506-12.136296 10.872099-19.847902 10.872098-2.907654 0-5.688889-0.505679-8.470123-1.643456-4.93037 1.517037-10.11358 2.275556-15.42321 2.275555-6.320988 0-12.894815-1.137778-18.962963-3.539753 3.160494 12.009877 10.619259 23.514074 22.249877 30.72 8.722963 5.688889 18.583704 8.470123 28.318024 8.470124z" fill="#FFFFFF" p-id="3030"></path><path d="M558.964938 195.192099c24.904691 16.055309 31.984198 49.303704 16.055309 74.208395-16.055309 25.283951-49.303704 31.984198-74.208395 16.055308-24.904691-16.055309-32.489877-49.303704-16.055309-74.208395 15.928889-24.904691 49.303704-31.984198 74.208395-16.055308z" fill="#666666" p-id="3031"></path><path d="M558.08 191.652346c25.283951 16.434568 32.489877 49.809383 16.055309 74.714074-16.055309 24.904691-49.303704 31.984198-74.208395 16.055308-24.904691-16.434568-31.984198-49.303704-16.055309-74.714074 15.928889-24.904691 49.303704-32.110617 74.208395-16.055308z" fill="#CCCCCC" p-id="3032"></path><path d="M534.565926 209.477531c10.619259 7.079506 13.779753 21.744198 6.700247 32.489876-6.700247 11.124938-21.364938 14.285432-32.489877 7.079507-11.124938-7.079506-14.285432-21.744198-7.079506-32.489877 7.079506-11.124938 21.744198-14.285432 32.869136-7.079506z" fill="#666666" p-id="3033"></path><path d="M528.750617 289.248395c17.193086 0 34.006914-8.470123 43.994074-23.766914 16.055309-24.399012 8.849383-56.50963-15.549629-72.059259l-8.849383-4.93037c3.034074 11.504198 1.769877 24.399012-3.792593 35.77679 1.264198 5.941728 0.25284 12.262716-3.286913 17.572346-4.298272 7.079506-11.757037 10.872099-19.468642 10.872098-2.907654 0-5.941728-0.505679-8.722963-1.643456-5.05679 1.517037-10.24 2.275556-15.42321 2.275555-6.320988 0-12.894815-1.137778-18.962963-3.539753 3.160494 12.389136 10.619259 23.514074 22.249877 31.099259 8.470123 5.688889 18.204444 8.343704 27.812345 8.343704z" fill="#FFFFFF" p-id="3034"></path><path d="M111.818272 200.122469s39.063704 117.443951 197.467654 86.723951v-40.83358l-197.467654-45.890371z" fill="#666666" p-id="3035"></path><path d="M326.352593 242.599506s-165.104198-49.303704-214.407902-42.477037c0 0 13.653333 30.59358 51.073581 54.486914 37.293827 23.766914 120.730864 27.053827 163.334321-12.009877z" fill="#909090" p-id="3036"></path><path d="M837.594074 219.97037l57.520988 74.840494s30.59358-50.567901 30.59358-79.518024c0-0.12642-81.287901 4.677531-88.114568 4.67753zM717.874568 475.843951s-156.634074 22.123457-212.764445-71.553581c-0.12642 0 90.010864 80.023704 212.764445 71.553581zM594.994568 864.205432s34.891852 8.975802-2.528395 26.800988C557.82716 907.567407 455.42716 847.644444 455.42716 847.644444c-7.711605 13.779753-96.458272 85.206914-153.22074 130.212346C366.933333 1007.439012 438.992593 1024 514.844444 1024c18.078025 0 36.02963-0.884938 53.601976-2.781235 24.019753-37.546667 42.729877-78.127407 50.315061-116.053333 17.951605-40.96-23.766914-40.96-23.766913-40.96z" fill="#666666" p-id="3037"></path><path d="M411.180247 847.391605l-154.990617 94.561975-5.43605 8.849383c47.786667 28.823704 100.503704 50.062222 156.760494 61.945679 61.56642-71.300741 93.929877-182.297284 93.929877-182.297284l-55.371852-8.470123-34.891852 25.41037z" fill="#909090" p-id="3038"></path><path d="M718.506667 713.639506h-142.854321c-12.009877 0-21.870617 9.860741-21.870618 21.870617v24.904692c0 12.009877 9.860741 21.870617 21.870618 21.870617h142.854321c12.009877 0 21.870617-9.860741 21.870617-21.870617v-24.904692c0-12.009877-9.860741-21.870617-21.870617-21.870617z" fill="#666666" p-id="3039"></path><path d="M717.368889 709.088395h-142.854321c-12.009877 0-21.870617 9.860741-21.870617 21.870617v24.904692c0 12.009877 9.860741 21.870617 21.870617 21.870617h142.854321c12.009877 0 21.870617-9.860741 21.870617-21.870617v-24.904692c0.12642-12.009877-9.734321-21.870617-21.870617-21.870617z" fill="#CCCCCC" p-id="3040"></path><path d="M718.506667 789.491358h-142.854321c-12.009877 0-21.870617 9.860741-21.870618 21.870617v24.904692c0 12.009877 9.860741 21.870617 21.870618 21.870617h142.854321c12.009877 0 21.870617-9.860741 21.870617-21.870617v-24.904692c0-11.883457-9.860741-21.870617-21.870617-21.870617z" fill="#666666" p-id="3041"></path><path d="M717.368889 785.066667h-142.854321c-12.009877 0-21.870617 9.860741-21.870617 21.870617V831.841975c0 12.009877 9.860741 21.870617 21.870617 21.870618h142.854321c12.009877 0 21.870617-9.860741 21.870617-21.870618v-24.904691c0.12642-12.009877-9.734321-21.870617-21.870617-21.870617z" fill="#CCCCCC" p-id="3042"></path><path d="M718.506667 864.205432h-142.854321c-12.009877 0-21.870617 9.860741-21.870618 21.870617v24.904692c0 12.009877 9.860741 21.870617 21.870618 21.870617h142.854321c12.009877 0 21.870617-9.860741 21.870617-21.870617v-24.904692c0-12.009877-9.860741-21.870617-21.870617-21.870617z" fill="#666666" p-id="3043"></path><path d="M717.368889 860.792099h-142.854321c-12.009877 0-21.870617 9.860741-21.870617 21.870617v24.904691c0 12.009877 9.860741 21.870617 21.870617 21.870618h142.854321c12.009877 0 21.870617-9.860741 21.870617-21.870618v-24.904691c0.12642-12.009877-9.734321-21.870617-21.870617-21.870617z" fill="#CCCCCC" p-id="3044"></path><path d="M414.72 720.719012s23.261235 97.34321 130.591605 160.426667c110.617284 65.359012 146.014815 1.137778 153.6 24.399012 0 0-7.964444 14.538272-17.698765 13.653334-5.18321-0.379259-1.264198 0.25284 5.436049 2.275555 5.18321 2.022716 11.757037 4.93037 16.308148 9.355062 11.251358 9.481481-17.825185 11.377778-24.778272 4.298272-6.953086-7.079506 21.491358 17.319506 11.124939 23.640493-10.619259 6.573827-20.60642-10.11358-24.019753-16.940247-1.517037-3.286914-19.721481 4.045432-54.486914 0.25284-34.891852-4.424691-86.597531-20.73284-155.243457-70.668642-136.406914-100.630123-126.419753-85.459753-40.83358-150.692346z" fill="#909090" p-id="3045"></path></svg>