<?xml version="1.0" standalone="no"?><!DOCTYPE svg PUBLIC "-//W3C//DTD SVG 1.1//EN" "http://www.w3.org/Graphics/SVG/1.1/DTD/svg11.dtd"><svg t="1503732105049" class="icon" style="" viewBox="0 0 1047 1024" version="1.1" xmlns="http://www.w3.org/2000/svg" p-id="7357" xmlns:xlink="http://www.w3.org/1999/xlink" width="65.4375" height="64"><defs><style type="text/css"></style></defs><path d="M514.844444 512m-512 0a512 512 0 1 0 1024 0 512 512 0 1 0-1024 0Z" fill="#EDEDED" p-id="7358"></path><path d="M514.844444 441.204938m-302.143209 0a302.14321 302.14321 0 1 0 604.286419 0 302.14321 302.14321 0 1 0-604.286419 0Z" fill="#909090" p-id="7359"></path><path d="M874.382222 876.594568c-58.153086-141.463704-197.214815-241.082469-359.537778-241.082469S213.459753 735.130864 155.306667 876.594568c90.137284 88.873086 213.143704 144.624198 349.171358 147.279012 3.413333 0 6.953086 0.12642 10.366419 0.12642s6.953086 0 10.36642-0.12642c136.027654-2.654815 259.034074-58.405926 349.171358-147.279012z" fill="#909090" p-id="7360"></path><path d="M622.806914 477.234568c-11.883457 0-21.617778 9.607901-21.617778 21.617778 0 47.660247-38.684444 86.344691-86.344692 86.344691s-86.344691-38.684444-86.344691-86.344691c0-11.883457-9.607901-21.617778-21.617778-21.617778-11.883457 0-21.617778 9.607901-21.617777 21.617778 0 71.55358 58.026667 129.453827 129.453827 129.453827s129.453827-58.026667 129.453827-129.453827c0.12642-12.009877-9.481481-21.617778-21.364938-21.617778z" fill="#666666" p-id="7361"></path><path d="M342.155062 743.348148h345.378765v172.689383z" fill="#EDEDED" p-id="7362"></path><path d="M342.155062 916.037531V743.348148h345.378765z" fill="#CCCCCC" p-id="7363"></path></svg>