<?xml version="1.0" standalone="no"?><!DOCTYPE svg PUBLIC "-//W3C//DTD SVG 1.1//EN" "http://www.w3.org/Graphics/SVG/1.1/DTD/svg11.dtd"><svg t="1509349085730" class="icon" style="" viewBox="0 0 1059 1024" version="1.1" xmlns="http://www.w3.org/2000/svg" p-id="5002" xmlns:xlink="http://www.w3.org/1999/xlink" width="206.8359375" height="200"><defs><style type="text/css"></style></defs><path d="M922.197475 699H791.447475c-74.125 63-170.125 101-275 101S315.572475 762 241.447475 699H110.697475c-58.625 0-106.25 47.625-106.25 106.25v218.75H192.072475v-150h50v150H791.447475v-150h50v150h187v-218.75c0-58.625-47.625-106.25-106.25-106.25z" p-id="5003" fill="#ffb710"></path><path d="M516.447475 0c-207.125 0-375 167.875-375 375s167.875 375 375 375 375-167.875 375-375-167.875-375-375-375z m0 600c-124.25 0-225-100.75-225-225h50c0 96.625 78.375 175 175 175s175-78.375 175-175h50c0 124.25-100.75 225-225 225z" p-id="5004" fill="#ffb710"></path></svg>