<?xml version="1.0" standalone="no"?><!DOCTYPE svg PUBLIC "-//W3C//DTD SVG 1.1//EN" "http://www.w3.org/Graphics/SVG/1.1/DTD/svg11.dtd"><svg t="1509349104755" class="icon" style="" viewBox="0 0 1059 1024" version="1.1" xmlns="http://www.w3.org/2000/svg" p-id="5335" xmlns:xlink="http://www.w3.org/1999/xlink" width="206.8359375" height="200"><defs><style type="text/css"></style></defs><path d="M593.072475 586.25c-41.5-41.5-108.75-41.5-150.25 0L279.447475 749.625V286.5l-275 350v387.5h275v-1.5c21-3.5 41.125-13.375 57.25-29.625l256.375-256.375c41.5-41.5 41.5-108.75 0-150.25z" p-id="5336" fill="#ffb710"></path><path d="M435.197475 0c-58.625 0-106.25 47.625-106.25 106.25v522.625l78-78c61-61 160-61 221 0 61 61 61 160 0 221L449.822475 950h366.125v-950H435.197475zM922.197475 0h-56.25v950h56.25c58.625 0 106.25-47.625 106.25-106.25v-737.5c0-58.625-47.625-106.25-106.25-106.25z" p-id="5337" fill="#ffb710"></path></svg>