<?xml version="1.0" standalone="no"?><!DOCTYPE svg PUBLIC "-//W3C//DTD SVG 1.1//EN" "http://www.w3.org/Graphics/SVG/1.1/DTD/svg11.dtd"><svg t="1503732158775" class="icon" style="" viewBox="0 0 1059 1024" version="1.1" xmlns="http://www.w3.org/2000/svg" p-id="7481" xmlns:xlink="http://www.w3.org/1999/xlink" width="66.1875" height="64"><defs><style type="text/css"></style></defs><path d="M4.447475 512c0 182.875 97.625 352 256 443.375 158.375 91.5 353.625 91.5 512 0C930.822475 864 1028.447475 694.875 1028.447475 512c0-282.75-229.25-512-512-512-282.75 0-512 229.25-512 512z" fill="#FB8D17" p-id="7482"></path><path d="M692.697475 173.5l-301.875 80.875c-10 2.625-20.25-3.25-23-13.25L361.447475 217c-2.625-10 3.25-20.25 13.25-23l301.875-80.875c10-2.625 20.25 3.25 23 13.25l6.5 24.125c2.625 10-3.375 20.375-13.375 23z" fill="#FFE633" p-id="7483"></path><path d="M530.197475 217.125l44.125-76.625-85.375 22.875-44.125 76.625z" fill="#FDF181" p-id="7484"></path><path d="M370.572475 246.875c4.375 6.375 12.375 9.625 20.25 7.5L692.697475 173.5c7.875-2.125 13.25-9 13.875-16.625l-336 90z" fill="#E1A437" p-id="7485"></path><path d="M543.947475 762.75l-491.5-114-5-59.375 594.875-159.5z" fill="#E5B58C" p-id="7486"></path><path d="M840.072475 602.125l-359 96.25c-33.375 8.875-67.625-10.875-76.5-44.25l-9.75-36.25c-8.875-33.375 10.875-67.625 44.25-76.5l359-96.25c33.375-8.875 67.625 10.875 76.5 44.25l9.75 36.25c8.875 33.25-10.875 67.5-44.25 76.5z" fill="#E5B58C" p-id="7487"></path><path d="M653.072475 533.875l-211.125 56.5c-33.375 8.875-67.625-10.875-76.5-44.25l-9.75-36.25c-8.875-33.375 10.875-67.625 44.25-76.5L611.072475 377c33.375-8.875 67.625 10.875 76.5 44.25l9.75 36.25c8.875 33.25-10.875 67.5-44.25 76.375z" fill="#E5B58C" p-id="7488"></path><path d="M919.572475 705l-359.375 96.25c-33.375 8.875-67.625-10.875-76.5-44.25l-9.75-36.25c-8.875-33.375 10.875-67.625 44.25-76.5l359.375-96.25c33.375-8.875 67.625 10.875 76.5 44.25l9.75 36.25c8.875 33.25-10.875 67.625-44.25 76.5z" fill="#FFDAB8" p-id="7489"></path><path d="M574.822475 648.75L81.697475 516.625c-32-8.625-64.75 9.25-75.25 40.125 3.375 38.75 11.125 76.75 23 113.125 3.25 1.5 6.75 2.75 10.25 3.75L532.697475 805.625c33.375 8.875 67.625-10.875 76.5-44.25l9.75-36.25c9-33.25-10.75-67.5-44.125-76.375z" fill="#FFDAB8" p-id="7490"></path><path d="M493.322475 793.875c15 11.75 35 16.5 54.75 11.25l359.375-96.25c19.75-5.25 34.75-19.5 41.875-37.125l-456 122.125z" fill="#F8C49D" p-id="7491"></path><path d="M116.072475 461.875l277.75-74.375c43.375-11.625 87.875 14.125 99.5 57.5 11.625 43.375-14.125 87.875-57.5 99.5L158.072475 618.875c-43.375 11.625-87.875-14.125-99.5-57.5-11.625-43.375 14.125-87.875 57.5-99.5z" fill="#FFDAB8" p-id="7492"></path><path d="M496.322475 498.5l3.25 12.125c2.625 10-3.25 20.25-13.25 23L377.697475 562.75c-10 2.625-20.25-3.25-23-13.25l-3.25-12.125c-2.625-10 3.25-20.25 13.25-23l108.625-29.125c10.125-2.625 20.375 3.25 23 13.25z" fill="#F9F7F0" p-id="7493"></path><path d="M150.947475 425.875H11.697475c-4.75 28-7.25 56.75-7.25 86.125 0 38.75 4.375 76.875 12.875 113.875H150.947475c34.5 0 62.5-28 62.5-62.5v-75c0-34.5-28-62.5-62.5-62.5z" fill="#FFDAB8" p-id="7494"></path><path d="M24.322475 653.375l2.5-0.625c66.625-17.875 106.25-86.375 88.375-153.125l-41.375-154.25c-4.625-17.375-12.75-32.875-23.25-46-29.625 64.75-46.125 136.75-46.125 212.625 0 48.5 6.875 96 19.875 141.375z" fill="#FFDAB8" p-id="7495"></path><path d="M962.072475 661.75l3.25 12.125c2.625 10-3.25 20.25-13.25 23l-108.625 29.125c-10 2.625-20.25-3.25-23-13.25l-3.25-12.125c-2.625-10 3.25-20.25 13.25-23l108.625-29.125c10-2.75 20.375 3.25 23 13.25z" fill="#FFECDF" p-id="7496"></path><path d="M29.322475 669.875c3.25 1.5 6.625 2.75 10.125 3.625l493.125 132.125c19.75 5.25 39.875 0.5 54.75-11.25L21.447475 642.75c2.375 9.125 5 18.125 7.875 27.125z" fill="#F8C49D" p-id="7497"></path></svg>