<?xml version="1.0" standalone="no"?><!DOCTYPE svg PUBLIC "-//W3C//DTD SVG 1.1//EN" "http://www.w3.org/Graphics/SVG/1.1/DTD/svg11.dtd"><svg t="1509349111749" class="icon" style="" viewBox="0 0 1059 1024" version="1.1" xmlns="http://www.w3.org/2000/svg" p-id="5501" xmlns:xlink="http://www.w3.org/1999/xlink" width="206.8359375" height="200"><defs><style type="text/css"></style></defs><path d="M592.572475 598.75c-41.5-41.5-108.75-41.5-150.25 0L279.447475 761.625V286.5l-275 350v387.5h306.75c9-4.875 17.5-11 25.125-18.625L592.697475 749c41.375-41.375 41.375-108.75-0.125-150.25z m-35.375 115l-256.375 256.25c-1.375 1.375-2.875 2.75-4.375 4H54.447475v-312.5l175-225V882.375L477.697475 634.125c22-22 57.625-22 79.5 0s22 57.625 0 79.625z" p-id="5502" fill="#909090"></path><path d="M922.197475 0H435.197475c-58.625 0-106.25 47.625-106.25 106.25v535.25l50-50V106.25c0-31.125 25.125-56.25 56.25-56.25h380.75v850H512.322475l-50 50h459.875c58.625 0 106.25-47.625 106.25-106.25v-737.5c0-58.625-47.625-106.25-106.25-106.25z m56.25 843.75c0 31.125-25.125 56.25-56.25 56.25h-56.25v-850h56.25c31.125 0 56.25 25.125 56.25 56.25v737.5z" p-id="5503" fill="#909090"></path></svg>