<?xml version="1.0" standalone="no"?>
<!DOCTYPE svg PUBLIC "-//W3C//DTD SVG 1.1//EN" "http://www.w3.org/Graphics/SVG/1.1/DTD/svg11.dtd" >
<!--
2013-9-30: Created.
-->
<svg>
<metadata>
Created by iconfont
</metadata>
<defs>

<font id="iconfont" horiz-adv-x="1024" >
  <font-face
    font-family="iconfont"
    font-weight="500"
    font-stretch="normal"
    units-per-em="1024"
    ascent="896"
    descent="-128"
  />
    <missing-glyph />
    
    <glyph glyph-name="x" unicode="x" horiz-adv-x="1001"
d="M281 543q-27 -1 -53 -1h-83q-18 0 -36.5 -6t-32.5 -18.5t-23 -32t-9 -45.5v-76h912v41q0 16 -0.5 30t-0.5 18q0 13 -5 29t-17 29.5t-31.5 22.5t-49.5 9h-133v-97h-438v97zM955 310v-52q0 -23 0.5 -52t0.5 -58t-10.5 -47.5t-26 -30t-33 -16t-31.5 -4.5q-14 -1 -29.5 -0.5
t-29.5 0.5h-32l-45 128h-439l-44 -128h-29h-34q-20 0 -45 1q-25 0 -41 9.5t-25.5 23t-13.5 29.5t-4 30v167h911zM163 247q-12 0 -21 -8.5t-9 -21.5t9 -21.5t21 -8.5q13 0 22 8.5t9 21.5t-9 21.5t-22 8.5zM316 123q-8 -26 -14 -48q-5 -19 -10.5 -37t-7.5 -25t-3 -15t1 -14.5
t9.5 -10.5t21.5 -4h37h67h81h80h64h36q23 0 34 12t2 38q-5 13 -9.5 30.5t-9.5 34.5q-5 19 -11 39h-368zM336 498v228q0 11 2.5 23t10 21.5t20.5 15.5t34 6h188q31 0 51.5 -14.5t20.5 -52.5v-227h-327z" />
    

    
    <glyph glyph-name="jia" unicode="&#58906;" d="M513.688967-145.329555c-60.173474 0-118.562303 11.790534-173.544545 35.047214-53.092195 22.455431-100.768031 54.597479-141.702326 95.532797-40.934295 40.934295-73.076342 88.611154-95.532797 141.703349-23.255657 54.982242-35.047214 113.372094-35.047214 173.546591s11.791557 118.563326 35.047214 173.545568c22.456455 53.092195 54.597479 100.768031 95.532797 141.703349s88.61013 73.077366 141.702326 95.532797c54.982242 23.255657 113.37107 35.047214 173.544545 35.047214 60.174498 0 118.563326-11.791557 173.546591-35.047214 53.093219-22.456455 100.770078-54.598502 141.704372-95.532797 40.935318-40.934295 73.077366-88.61013 95.532797-141.703349 23.25668-54.982242 35.047214-113.372094 35.047214-173.545568s-11.790534-118.563326-35.047214-173.546591c-22.455431-53.093219-54.597479-100.769055-95.532797-141.703349-40.934295-40.935318-88.611154-73.077366-141.704372-95.532797C632.253316-133.537997 573.863465-145.329555 513.688967-145.329555zM513.688967 689.024178c-103.777575 0-201.343681-40.413432-274.725992-113.795742-73.382311-73.382311-113.795742-170.94944-113.795742-274.728038s40.413432-201.346751 113.795742-274.729062 170.948417-113.795742 274.725992-113.795742c103.779621 0 201.347774 40.413432 274.730085 113.795742s113.795742 170.94944 113.795742 274.729062c0 103.778598-40.413432 201.345728-113.795742 274.728038S617.468588 689.024178 513.688967 689.024178zM513.691013 142.568435c-15.824407 0-28.652574 12.828167-28.652574 28.652574l0 258.558777c0 15.824407 12.828167 28.652574 28.652574 28.652574s28.652574-12.828167 28.652574-28.652574l0-258.558777C542.343587 155.396601 529.515421 142.568435 513.691013 142.568435zM648.270105 271.847823 379.111922 271.847823c-15.824407 0-28.652574 12.828167-28.652574 28.652574s12.828167 28.652574 28.652574 28.652574l269.158183 0c15.824407 0 28.652574-12.828167 28.652574-28.652574S664.094512 271.847823 648.270105 271.847823z"  horiz-adv-x="1024" />

    
    <glyph glyph-name="shouji" unicode="&#59041;" d="M773.688889-120.977778 250.311111-120.977778c-37.705956 0-68.266667 30.583467-68.266667 68.266667L182.044444 652.711111c0 37.6832 30.560711 68.266667 68.266667 68.266667l523.377778 0c37.705956 0 68.266667-30.583467 68.266667-68.266667l0-705.422222C841.955556-90.394311 811.394844-120.977778 773.688889-120.977778zM796.444444 629.955556c0 25.122133-20.388978 45.511111-45.511111 45.511111L273.066667 675.466667c-25.122133 0-45.511111-20.388978-45.511111-45.511111l0-659.911111c0-25.122133 20.388978-45.511111 45.511111-45.511111l477.866667 0c25.122133 0 45.511111 20.388978 45.511111 45.511111L796.444444 629.955556zM591.644444-7.2l-159.288889 0c-12.583822 0-22.755556 10.171733-22.755556 22.755556s10.171733 22.755556 22.755556 22.755556l159.288889 0c12.583822 0 22.755556-10.171733 22.755556-22.755556S604.228267-7.2 591.644444-7.2z"  horiz-adv-x="1024" />

    
    <glyph glyph-name="wenhao" unicode="&#58974;" d="M502.757-148.219c-60.5 0-119.201 11.854-174.474 35.231-53.377 22.576-101.31 54.894-142.466 96.05-41.156 41.153-73.472 89.088-96.049 142.465C66.39 180.799 54.537 239.5 54.537 300S66.39 419.201 89.768 474.474c22.576 53.376 54.893 101.309 96.049 142.465 41.156 41.157 89.089 73.473 142.466 96.049 55.271 23.378 113.973 35.231 174.474 35.231 60.499 0 119.2-11.853 174.474-35.231 53.377-22.577 101.31-54.893 142.466-96.05 41.157-41.155 73.472-89.088 96.048-142.465 23.379-55.27 35.231-113.972 35.231-174.474s-11.854-119.204-35.232-174.473c-22.577-53.38-54.892-101.312-96.047-142.466-41.156-41.155-89.09-73.473-142.465-96.049C621.956-136.365 563.256-148.219 502.757-148.219zM502.757 717.52c-56.369 0-111.047-11.038-162.515-32.806-49.717-21.029-94.369-51.136-132.716-89.482-38.348-38.348-68.453-83-89.482-132.717C96.275 411.048 85.237 356.37 85.237 300c0-56.368 11.038-111.047 32.807-162.512 21.03-49.722 51.135-94.373 89.482-132.717 38.347-38.351 82.999-68.455 132.716-89.482 51.469-21.77 106.146-32.809 162.515-32.809s111.046 11.036 162.516 32.809c49.717 21.029 94.368 51.135 132.715 89.482 38.348 38.344 68.453 82.996 89.48 132.715 21.771 51.465 32.809 106.145 32.809 162.514 0 56.371-11.037 111.049-32.809 162.515-21.028 49.718-51.135 94.371-89.48 132.718-38.348 38.347-82.999 68.453-132.717 89.482C613.804 706.482 559.125 717.52 502.757 717.52zM446.479 92.706l0-74.638 89.476 0 0 74.638L446.479 92.706zM677.814 350.852c13.094 19.66 19.645 41.14 19.645 64.442 0 40.29-18.628 74.642-55.87 103.039-37.253 28.397-87.159 42.599-149.72 42.599-59.074 0-106.578-13.231-142.51-39.685-35.942-26.461-57.545-64.57-64.816-114.325l80.75-8.01c6.979 37.134 21.674 64.443 44.081 81.917 22.407 17.479 50.34 26.216 83.806 26.216 34.628 0 63.873-9.647 87.736-28.943 23.858-19.299 35.795-41.69 35.795-67.178 0-14.08-4.082-27.068-12.226-38.956-8.149-11.897-25.823-27.854-53.032-47.879-27.21-20.024-46.045-35.258-56.526-45.695-14.259-14.323-24.589-28.523-30.986-42.596-8.733-18.695-13.093-40.905-13.093-66.63 0-4.371 0.14-10.923 0.436-19.663l75.509 0c0.578 26.216 2.761 45.153 6.55 56.798 3.775 11.651 9.602 21.969 17.456 30.951 7.859 8.975 24.59 22.938 50.198 41.868C639.109 307.278 664.72 331.186 677.814 350.852L677.814 350.852z"  horiz-adv-x="1024" />

    
    <glyph glyph-name="duanxin" unicode="&#58953;" d="M822.606177 595.912523 201.393823 595.912523c-45.025473 0-81.864496-36.839023-81.864496-81.864496l0-428.095032c0-45.025473 36.839023-81.864496 81.864496-81.864496L822.606177 4.0885c45.025473 0 81.864496 36.839023 81.864496 81.864496L904.470673 514.048027C904.470673 559.0735 867.63165 595.912523 822.606177 595.912523zM853.305363 85.952996c0-8.109702-3.218298-15.793708-9.061376-21.63781-5.843078-5.844102-13.528108-9.061376-21.63781-9.061376L201.393823 55.25381c-8.109702 0-15.793708 3.218298-21.63781 9.061376s-9.061376 13.528108-9.061376 21.63781L170.694637 514.048027c0 8.109702 3.218298 15.793708 9.061376 21.63781 5.843078 5.844102 13.528108 9.061376 21.63781 9.061376L822.606177 544.747213c8.109702 0 15.793708-3.218298 21.63781-9.061376 5.844102-5.843078 9.061376-13.528108 9.061376-21.63781L853.305363 85.952996zM759.37404 469.479973 518.881734 289.110999 278.388405 469.479973c-11.302417 8.476045-27.338648 6.186909-35.815717-5.116531s-6.186909-27.338648 5.116531-35.815717L503.532141 236.666556c0.007163-0.005117 0.01535-0.010233 0.022513-0.01535 0.560772-0.420579 1.13587-0.816598 1.724271-1.186012 0.01842-0.011256 0.035816-0.021489 0.054235-0.032746 0.51984-0.324388 1.050935-0.626263 1.590218-0.910743 0.118704-0.063445 0.23843-0.12689 0.358157-0.188288 0.543376-0.276293 1.092891-0.538259 1.65264-0.773619 0.102331-0.042979 0.205685-0.079818 0.308015-0.12075 0.452301-0.183172 0.907673-0.353041 1.36816-0.51063 0.239454-0.081864 0.478907-0.157589 0.720408-0.232291 0.338714-0.104377 0.679475-0.199545 1.022283-0.289596 0.2415-0.063445 0.480954-0.132006 0.724501-0.188288 0.51984-0.12075 1.042749-0.224104 1.567705-0.312108 0.23843-0.039909 0.476861-0.069585 0.716314-0.102331 0.367367-0.051165 0.734734-0.095167 1.103124-0.12996 0.225127-0.021489 0.449231-0.042979 0.674359-0.057305 0.538259-0.036839 1.076518-0.060375 1.616824-0.063445 0.034792 0 0.070608-0.004093 0.105401-0.004093 0.007163 0 0.013303 0 0.020466 0s0.013303 0 0.020466 0c0.034792 0 0.070608 0.004093 0.105401 0.004093 0.539282 0.00307 1.078565 0.026606 1.616824 0.063445 0.225127 0.01535 0.449231 0.035816 0.674359 0.057305 0.369414 0.034792 0.737804 0.079818 1.106194 0.12996 0.237407 0.032746 0.475837 0.062422 0.713244 0.101307 0.527003 0.088004 1.050935 0.192382 1.570775 0.313132 0.240477 0.056282 0.478907 0.12382 0.717338 0.187265 0.344854 0.091074 0.688685 0.187265 1.029446 0.292666 0.239454 0.073678 0.477884 0.149403 0.715291 0.230244 0.462534 0.157589 0.920976 0.328481 1.375324 0.512676 0.100284 0.040932 0.201591 0.075725 0.300852 0.11768 0.559748 0.23536 1.109264 0.49835 1.653663 0.774643 0.12075 0.061398 0.240477 0.125867 0.361227 0.189312 0.534166 0.282433 1.061169 0.581238 1.576915 0.902556 0.022513 0.014326 0.046049 0.026606 0.068562 0.040932 0.585331 0.367367 1.157359 0.76134 1.716084 1.179872 0.00921 0.007163 0.01842 0.01228 0.027629 0.019443l255.842922 191.882192c11.30344 8.477069 13.5936 24.512277 5.116531 35.815717C786.712689 475.665859 770.678504 477.959088 759.37404 469.479973z"  horiz-adv-x="1024" />

    
    <glyph glyph-name="my" unicode="&#58942;" d="M737.038848 434.324288c0 120.961956-98.019431 218.981387-218.935338 218.981387-120.92 0-218.983433-98.066503-218.983433-218.981387 0-81.456197 44.985564-151.672398 110.964254-189.423187-125.912711-40.652885-205.505467-157.285233-209.979362-295.723212l33.128515 0.475837c5.473665 145.81704 121.518634 267.506567 247.423159 267.506567l28.958542-1.651616c3.000334-0.098237 5.536087-0.260943 8.583492-0.260943C639.066489 215.338808 737.038848 313.406335 737.038848 434.324288L737.038848 434.324288zM518.10351 250.356346c-101.632725 0-184.02013 82.335217-184.02013 183.964872 0 101.627608 82.386382 184.013991 184.02013 184.013991 101.627608 0 184.015014-82.387405 184.015014-184.013991C702.118524 332.691563 619.67893 250.356346 518.10351 250.356346L518.10351 250.356346zM700.970374 181.300574c-5.324262 4.412496-10.101055 7.339152-16.85283 7.66354-9.968026 0.479931-18.519796-6.658653-17.712407-18.914792 0.419556-6.372128 4.037966-12.548804 15.219633-22.688745l0.094144 0.093121-0.094144-0.093121c59.982116-46.700625 99.875708-117.726262 105.588827-198.183711l34.718733 0C816.172139 43.200286 770.282996 126.26819 700.970374 181.300574L700.970374 181.300574z"  horiz-adv-x="1024" />

    
    <glyph glyph-name="zhimaxinyong" unicode="&#58892;" d="M1489.247566 604.209496l-74.80253 0L1414.445036 625.295806c0 10.250717-7.418687 17.761753-16.314955 17.761753l-0.985054 0c-8.896268 0-16.314955-7.511036-16.314955-17.761753L1380.830072 604.209496l-196.549034 0L1184.281039 625.295806c0 10.250717-6.956943 17.761753-16.345738 17.761753l-0.985054 0c-9.388795 0-16.314955-7.511036-16.314955-17.761753L1150.635292 604.209496l-74.771747 0c-8.927051 0-16.314955-8.126695-16.314955-17.823319l0-0.52331c0-10.250717 7.387904-17.854102 16.314955-17.854102l74.771747 0 0-21.60962c0-9.665841 6.956943-17.792536 16.314955-17.792536l0.985054 0c9.419578 0 16.345738 8.126695 16.345738 17.792536L1184.281039 568.008766l196.549034 0 0-21.60962c0-9.665841 7.418687-17.792536 16.314955-17.792536l0.985054 0c8.896268 0 16.314955 8.126695 16.314955 17.792536L1414.445036 568.008766l74.80253 0c8.865485 0 16.284172 7.603385 16.284172 17.854102L1505.531738 586.355394C1505.531738 596.052019 1498.113051 604.209496 1489.247566 604.209496M1847.776399 446.66244l-0.954271 0c-8.927051 0-16.345738-8.342175-16.345738-18.346629l0-80.651287c0-16.68435 0-32.814608-0.461744-47.83668-2.000891-38.355536-7.97278-76.187762-19.854992-112.326926-2.985945-8.896268 0.985054-19.485597 9.388795-23.39503l0.554093 0c8.372958-3.35534 17.792536 1.138969 20.77848 10.589329 18.808373 58.364443 22.748588 111.249524 22.748588 173.000089l0 80.651287C1863.62961 438.320265 1856.70345 446.66244 1847.776399 446.66244M1984.452626 481.724202l0 0.52331c0 10.2815-7.418687 17.854102-16.345738 17.854102l-49.468175 0L1918.638713 536.271561c0 9.696624-7.418687 17.300009-16.345738 17.300009l-0.985054 0c-8.372958 0-15.822428-7.603385-15.822428-17.300009l0-36.169948-49.529741 0c-8.372958 0-15.822428-7.572602-15.822428-17.854102l0-0.52331c0-9.696624 7.418687-17.269226 15.822428-17.269226l49.529741 0 0-283.356908c0-9.142531 7.418687-17.269226 15.822428-17.269226l0.985054 0c8.927051 0 16.345738 8.126695 16.345738 17.269226L1918.638713 464.454976l49.468175 0C1977.033939 464.454976 1984.452626 472.027577 1984.452626 481.724202M1635.95903 568.562859l330.639495 0c9.450361 0 16.345738 7.572602 16.345738 17.854102L1982.944262 586.909487c0 9.75819-6.92616 17.269226-16.345738 17.269226l-159.394032 0L1807.204492 625.265023c0 9.696624-7.387904 17.792536-16.345738 17.792536l-0.954271 0c-8.403741 0-15.853211-8.095912-15.853211-17.792536L1774.051272 604.209496l-138.092242 0c-8.403741 0-16.345738-1.108186-23.764425-4.863704-7.941997-3.786301-13.883103-8.095912-19.331683-14.037018-10.897159-12.959615-17.823319-29.182221-18.315846-46.974757l-0.153915-355.696803c0-9.727407 7.418687-17.854102 16.314955-18.377412l0.52331 0c8.896268 0 16.314955 7.541819 16.838265 17.300009L1607.731079 537.256615c0.492527 8.095912 2.955162 15.114421 8.372958 21.60962C1621.552617 565.361433 1627.98625 568.562859 1635.95903 568.562859M1664.648724 446.631657l-0.985054 0c-8.927051 0-16.345738-8.372958-16.345738-18.377412l0-80.928334c0-16.745916 0-32.906956-0.492527-47.959811-2.000891-39.617636-7.911214-75.910715-19.82421-112.727104-2.493418-8.896268 1.477581-19.547163 9.419578-22.840937l0.954271-0.554093c8.434524-3.35534 17.823319 1.138969 20.840046 10.589329 8.372958 25.088091 13.821537 49.591307 17.300009 75.264274 3.970998 32.906956 4.956052 64.151635 4.956052 98.19756l0 80.928334C1680.471152 438.258699 1673.544992 446.631657 1664.648724 446.631657M1784.917648 500.101613l-49.006431 0L1735.911217 536.271561c0 9.696624-7.418687 17.300009-16.314955 17.300009l-1.015837 0c-8.403741 0-15.822428-7.603385-15.822428-17.300009l0-36.169948L1652.735729 500.101613c-8.403741 0-15.853211-7.572602-15.853211-17.854102l0-0.52331c0-9.696624 7.418687-17.269226 15.853211-17.269226l50.022268 0 0-283.356908c0-9.142531 7.387904-17.269226 15.822428-17.269226l1.015837 0c8.896268 0 16.314955 8.126695 16.314955 17.269226L1735.911217 464.454976l49.006431 0c8.927051 0 16.314955 7.572602 16.314955 17.269226l0 0.52331C1801.263386 492.529011 1793.844698 500.101613 1784.917648 500.101613M1775.036326 446.631657l-0.985054 0c-8.896268 0-16.345738-8.157478-16.345738-17.915668l0-248.633758c0-9.75819 7.44947-17.977233 16.345738-17.977233l0.985054 0c8.372958 0 15.853211 8.219043 15.853211 17.977233l0 248.633758C1790.889537 438.474179 1783.440067 446.631657 1775.036326 446.631657M1973.06294 299.827844c-0.492527 15.022072-0.492527 31.121546-0.492527 47.83668l0 80.651287c0 10.004454-7.418687 18.346629-16.345738 18.346629l-0.985054 0c-8.896268 0-15.822428-8.342175-15.822428-18.346629l0-80.651287c0-61.750566 3.970998-114.635646 22.748588-173.000089 2.985945-9.450361 12.343957-13.913886 20.809263-10.589329l0.492527 0c8.403741 3.847867 12.374739 14.498762 9.450361 23.364247C1981.004937 223.640083 1975.063831 261.503091 1973.06294 299.827844M2958.794054 602.177823c-6.92616 16.191823-18.315846 28.597346-33.15322 35.615855C2918.222147 641.549195 2910.310933 643.211474 2901.907192 643.211474l-256.975933 0c-6.433633 0-12.867266-0.985054-18.623675-3.139859L2626.307584 640.102397c-1.662278-0.584876-4.001781-1.2621-5.66406-2.09324-8.49609-4.063347-15.237552-8.034346-21.147876-14.437196-11.728298-13.944669-19.208551-31.398593-19.731861-50.607144l-0.646442-389.157852c0-10.466198 8.003563-19.208551 17.607838-19.793427l0.554093 0c9.604275 0 17.577055 8.157478 18.131148 18.654458l0 128.949711L2748.91601 311.617708l0-129.072842c0-10.250717 7.418687-17.792536 16.314955-17.792536l0.985054 0c8.927051 0 16.345738 7.541819 16.345738 17.792536l0 129.072842 147.542603 0 0-79.41997c0-8.619222-2.493418-15.63773-7.941997-21.578837-5.910323-6.464416-12.898049-9.727407-20.285954-9.727407l-14.37563 0c-8.927051 0-16.314955-7.511036-16.314955-17.792536l0-0.584876c0-9.696624 7.387904-17.761753 16.314955-17.761753l14.37563 0c8.403741 0 16.314955 1.631496 23.733642 5.356231 14.837374 7.049292 26.257843 19.485597 33.15322 36.231513 2.985945 8.095912 4.956052 16.745916 4.956052 25.888448L2963.719324 575.704499C2963.750107 584.877814 2961.779999 594.051128 2958.794054 602.177823M2748.91601 347.756873l-133.474802 0 0.030783 108.571408L2748.91601 456.328281 2748.91601 347.756873zM2748.91601 493.083104l-133.444019 0 0.030783 64.059286 0.73879 17.484707c0.338612 5.848757 1.908542 11.389686 4.494308 16.222606 0.892705 1.446798 1.78541 2.893596 2.955162 4.278828 0.277046 0.338612 1.231317 1.908542 1.477581 2.185588 5.448579 6.464416 11.882213 9.173314 19.793427 9.173314L2748.91601 606.487433 2748.91601 493.083104zM2930.135143 347.756873l-147.542603 0 0 108.571408 147.542603 0L2930.135143 347.756873zM2930.135143 493.083104l-147.542603 0L2782.59254 606.487433l119.314652 0c7.387904 0 14.37563-2.708898 20.285954-8.650004 5.448579-5.941106 7.941997-13.482925 7.941997-22.13293L2930.135143 493.083104zM1485.184219 200.522099 1154.760205 200.522099c34.661584 24.287735 82.898441 58.087397 131.104516 91.948624 45.466394 31.921903 90.809655 63.936154 124.824798 88.13154 17.053745 12.128476 31.244678 22.317627 41.126 29.551617 19.485597 14.190933 26.781153 19.51638 22.440759 33.276352-2.554984 8.095912-10.096802 13.667623-18.592892 13.667623l-158.501327 0 0 27.550726c0 9.696624-6.92616 17.792536-16.314955 17.792536l-0.492527 0c-8.927051 0-16.345738-8.095912-16.345738-17.792536l0-27.550726-142.771248 0c-10.743244 0-19.454814-8.71157-19.454814-19.485597 0-10.712461 8.71157-19.424031 19.454814-19.424031l275.260996 0c-71.9705-51.315151-212.77164-150.097586-314.570803-221.175381-6.956943-4.832921-9.912105-13.667623-7.357121-21.763534 2.524201-8.126695 10.004454-13.606057 18.531326-13.606057l392.113014 0c10.743244 0 19.424031 8.71157 19.424031 19.424031C1504.60825 191.810529 1495.927463 200.522099 1485.184219 200.522099M2481.412313 604.209496l-124.732449 0L2356.679864 625.23424c0 10.250717-7.44947 17.823319-16.376521 17.823319l-0.492527 0c-8.896268 0-16.314955-7.572602-16.314955-17.823319L2323.495862 604.209496l-124.794015 0c-8.896268 0-16.314955-8.157478-16.314955-17.823319l0-1.077403c0-9.75819 7.418687-17.823319 16.314955-17.823319l282.710466 0c8.896268 0 16.314955 8.065129 16.314955 17.823319L2497.727268 586.355394C2497.758051 596.021236 2490.308581 604.209496 2481.412313 604.209496M2193.80736 418.003528c0-9.727407 7.387904-17.792536 16.314955-17.792536l259.900312 0c8.927051 0 16.345738 8.065129 16.345738 17.792536l0 1.108186c0 9.142531-7.418687 17.823319-16.345738 17.823319l-259.900312 0c-8.927051 0-16.314955-8.680787-16.314955-17.823319L2193.80736 418.003528zM2210.122315 482.401426l259.900312 0c8.927051 0 16.345738 8.619222 16.345738 17.792536l0 1.108186c0 9.727407-7.418687 17.792536-16.345738 17.792536l-259.900312 0c-8.927051 0-16.314955-8.065129-16.314955-17.792536l0-1.108186C2193.80736 491.051431 2201.195265 482.401426 2210.122315 482.401426M2437.361935 363.302254l-194.51736 0c-21.794317 0-39.648419-14.591111-48.544687-35.646638-2.462635-7.018509-3.940216-14.560328-3.940216-22.13293l0-83.544883c0-31.860337 23.733642-57.256257 52.484903-57.256257l194.51736 0c7.418687 0 14.37563 1.077403 20.285954 4.371177 19.82421 9.142531 32.691476 29.151439 32.691476 52.915864l0 83.544883c0 15.114421-5.941106 29.736314-15.822428 40.479558C2464.574048 356.837838 2451.737565 363.302254 2437.361935 363.302254M2456.693617 221.977804c0-12.405522-7.97278-21.117093-19.331683-21.117093l-194.51736 0c-11.389686 0-18.839156 8.680787-18.839156 21.117093l0 83.544883c0 11.85143 7.44947 20.501434 18.839156 20.501434l194.51736 0c11.358903 0 19.331683-8.650004 19.331683-20.501434L2456.693617 221.977804zM2119.035614 635.51574l-58.887753-59.995938c-3.478472-3.170642-5.448579-7.480253-5.448579-12.343957 0-5.417796 1.477581-9.204097 4.925269-13.544491 5.910323-6.464416 15.853211-6.987726 22.748588-0.52331l30.690585 31.306244 0-399.593267c0-10.219934 7.418687-17.792536 16.345738-17.792536l0.985054 0c8.896268 0 16.345738 7.572602 16.345738 17.792536L2146.740254 622.002032C2146.771037 637.670545 2129.440245 645.79724 2119.035614 635.51574M1181.202745-62.271809c0-7.480253-1.539147-14.190933-4.61744-20.070473-3.078293-5.941106-7.203207-10.958725-12.436305-15.206769-5.233099-4.155696-11.358903-7.357121-18.46976-9.635058-7.049292-2.185588-14.652677-3.386123-22.779371-3.386123-7.97278 0-16.16104 0.892705-24.564781 2.647332s-16.068692 4.340394-23.056418 7.818865l4.494308 19.054636c6.125804-2.985945 12.898049-5.387013 20.316736-7.326338 7.357121-1.877759 14.806591-2.83203 22.286844-2.83203 10.80481 0 19.51638 2.401069 26.165494 7.172424 6.679897 4.802138 9.973671 11.697515 9.973671 20.716915 0 5.079184-0.923488 9.388795-2.862813 12.990398-1.908542 3.509254-4.525091 6.741463-7.849648 9.635058-3.324557 2.862813-7.172424 5.417796-11.574383 7.695734-4.463525 2.247154-9.111748 4.586657-14.098584 7.049292-5.66406 2.770464-11.081856 5.694843-16.314955 8.71157-5.263882 3.078293-9.850539 6.556765-13.85232 10.466198s-7.141641 8.342175-9.604275 13.298228c-2.370286 4.925269-3.601603 10.774027-3.601603 17.361575 0 7.480253 1.292883 14.098584 3.87865 19.854992 2.554984 5.787192 6.18737 10.558546 10.866376 14.37563 4.61744 3.817084 10.219934 6.71068 16.715133 8.588439 6.464416 1.908542 13.575274 2.924379 21.394139 2.924379 7.97278 0 15.760862-0.985054 23.271898-2.924379 7.572602-1.908542 14.16015-4.463525 19.854992-7.572602l-4.217262-19.054636c-5.356231 2.955162-11.389686 5.417796-18.223497 7.326338-6.833811 1.908542-13.667623 2.893596-20.686132 2.893596-20.101256 0-30.136492-8.249826-30.136492-24.595564 0-3.632386 0.492527-6.864594 1.477581-9.511927 1.015837-2.708898 2.647332-5.202316 4.894487-7.572602 2.185588-2.339503 5.202316-4.61744 8.957834-6.833811 3.755518-2.124022 8.249826-4.586657 13.544491-7.418687 5.325448-2.770464 10.958725-5.756409 16.961397-8.988617 5.971889-3.201425 11.451251-7.049292 16.438087-11.512817 4.986835-4.432743 9.142531-9.604275 12.467088-15.514599C1179.540467-47.588349 1181.202745-54.452944 1181.202745-62.271809M1225.31469 66.462421 1317.755841 66.462421 1317.755841 46.853692 1248.247975 46.853692 1248.247975-8.709504 1314.769896-8.709504 1314.769896-28.349015 1248.247975-28.349015 1248.247975-87.88321 1318.494631-87.88321 1318.494631-107.430373 1225.31469-107.430373ZM1463.051289-62.271809c0-7.480253-1.539147-14.190933-4.586657-20.070473-3.109076-5.941106-7.23399-10.958725-12.467088-15.206769-5.233099-4.155696-11.358903-7.357121-18.46976-9.635058-7.049292-2.185588-14.652677-3.386123-22.779371-3.386123-8.003563 0-16.16104 0.892705-24.533998 2.647332-8.403741 1.754627-16.099475 4.340394-23.056418 7.818865l4.494308 19.054636c6.125804-2.985945 12.898049-5.387013 20.316736-7.326338 7.387904-1.877759 14.775808-2.83203 22.286844-2.83203 10.835593 0 19.51638 2.401069 26.196277 7.172424 6.649114 4.802138 9.942888 11.697515 9.942888 20.716915 0 5.079184-0.923488 9.388795-2.862813 12.990398-1.908542 3.509254-4.494308 6.741463-7.849648 9.635058-3.324557 2.862813-7.172424 5.417796-11.574383 7.695734-4.432743 2.247154-9.111748 4.586657-14.098584 7.049292-5.66406 2.770464-11.081856 5.694843-16.314955 8.71157-5.263882 3.078293-9.819756 6.556765-13.821537 10.466198-4.032564 3.909433-7.172424 8.342175-9.604275 13.298228-2.370286 4.925269-3.601603 10.774027-3.601603 17.361575 0 7.480253 1.292883 14.098584 3.87865 19.854992 2.554984 5.787192 6.18737 10.558546 10.866376 14.37563 4.61744 3.817084 10.219934 6.71068 16.715133 8.588439 6.464416 1.908542 13.544491 2.924379 21.394139 2.924379 8.003563 0 15.760862-0.985054 23.302681-2.924379 7.572602-1.908542 14.16015-4.463525 19.82421-7.572602l-4.217262-19.054636c-5.325448 2.955162-11.389686 5.417796-18.192714 7.326338-6.864594 1.908542-13.698406 2.893596-20.716915 2.893596-20.101256 0-30.136492-8.249826-30.136492-24.595564 0-3.632386 0.492527-6.864594 1.477581-9.511927 1.015837-2.708898 2.647332-5.202316 4.894487-7.572602 2.216371-2.339503 5.202316-4.61744 8.957834-6.833811 3.755518-2.124022 8.249826-4.586657 13.544491-7.418687 5.356231-2.770464 10.958725-5.756409 16.99218-8.988617 5.941106-3.201425 11.451251-7.049292 16.438087-11.512817 4.956052-4.432743 9.142531-9.604275 12.436305-15.514599C1461.419794-47.588349 1463.051289-54.452944 1463.051289-62.271809M1648.76473-107.430373l-23.487379 0-15.145204 42.018705-77.572994 0-14.929723-42.018705L1494.203618-107.430373l66.060176 173.862011 22.409976 0L1648.76473-107.430373zM1539.54688-46.079986l63.813022 0-31.89112 90.594175L1539.54688-46.079986zM1832.877459 66.462421 1853.594373 66.462421 1865.538152-107.430373 1843.620703-107.430373 1835.647923 28.04532 1787.749677-76.124129 1764.323865-76.124129 1716.517968 28.04532 1708.545188-107.430373 1686.566173-107.430373 1698.571518 66.462421 1719.257649 66.462421 1776.052163-56.5154ZM1916.360776 66.462421 2008.83271 66.462421 2008.83271 46.853692 1939.294062 46.853692 1939.294062-8.709504 2005.846765-8.709504 2005.846765-28.349015 1939.294062-28.349015 1939.294062-87.88321 2009.5715-87.88321 2009.5715-107.430373 1916.360776-107.430373ZM2203.996512 69.571498c7.418687 0 15.237552-0.73879 23.425813-2.185588 8.126695-1.539147 14.89894-3.447689 20.409085-5.910323l-3.693952-18.531326c-5.66406 2.09324-11.728298 3.786301-18.192714 5.109967-6.495199 1.2621-12.898049 1.908542-19.208551 1.908542-20.747698 0-36.970304-6.064238-48.606253-18.285063-11.635949-12.159259-17.423141-29.551617-17.423141-52.207856 0-22.625457 5.787192-40.017814 17.423141-52.207856s27.858555-18.285063 48.606253-18.285063c6.310501 0 12.713352 0.677225 19.208551 1.970108 6.464416 1.292883 12.528654 2.985945 18.192714 5.079184l3.693952-18.500543c-5.510145-2.524201-12.282391-4.432743-20.409085-5.910323-8.18826-1.477581-16.007126-2.216371-23.425813-2.216371-13.63684 0-25.826882 2.277937-36.539343 6.833811-10.712461 4.494308-19.731861 10.774027-27.058199 18.77759-7.295555 7.97278-12.898049 17.453924-16.807482 28.443431s-5.848757 22.964069-5.848757 36.016033c0 13.082747 1.939325 25.057308 5.848757 36.046816s9.511927 20.439868 16.807482 28.443431c7.326338 8.065129 16.345738 14.252498 27.058199 18.808373C2178.16963 67.293561 2190.328889 69.571498 2203.996512 69.571498M2316.877531-107.430373 2293.944245-107.430373l0 173.862011 43.126891 0c8.957834 0 17.300009-1.077403 25.026525-3.139859 7.695734-2.062457 14.529545-5.171533 20.285954-9.296446 5.817975-4.124913 10.404632-9.23488 13.729189-15.42225 3.293774-6.18737 4.986835-13.236662 4.986835-21.271007 0-12.036127-3.693952-22.440759-11.081856-31.337027-7.418687-8.834702-17.73097-15.329901-31.029198-19.3009l58.518358-74.125305L2389.37134-107.461156l-54.054832 69.938826c-0.831139 0-2.062457-0.061566-3.755518-0.153915-1.662278-0.061566-3.386123-0.123132-5.233099-0.123132l-5.356231 0-4.124913 0L2316.846748-107.430373zM2378.197135 16.809549c0 5.448579-1.108186 10.035236-3.35534 13.975452-2.247154 3.909433-5.294665 7.049292-9.111748 9.450361-3.817084 2.277937-8.219043 4.032564-13.205879 5.171533s-10.189151 1.723844-15.730079 1.723844l-19.916558 0 0-65.506084 11.482034 0c6.987726 0 13.482925 0.646442 19.577946 2.031674 6.064238 1.446798 11.32812 3.540037 15.822428 6.372067 4.494308 2.955162 8.003563 6.556765 10.589329 10.989507S2378.197135 10.714528 2378.197135 16.809549M2454.41568 66.462421 2546.887614 66.462421 2546.887614 46.853692 2477.379749 46.853692 2477.379749-8.709504 2543.932452-8.709504 2543.932452-28.349015 2477.379749-28.349015 2477.379749-87.88321 2547.657187-87.88321 2547.657187-107.430373 2454.41568-107.430373ZM2596.509704 66.462421l46.112835 0c14.283281 0 27.212114-2.154805 38.878846-6.556765 11.605166-4.340394 21.578837-10.404632 29.890229-18.161931 8.342175-7.695734 14.714242-16.899831 19.177768-27.550726 4.494308-10.650895 6.772245-22.194495 6.772245-34.72315s-2.247154-24.103037-6.772245-34.692367c-4.494308-10.620112-10.866376-19.82421-19.177768-27.581509-8.311392-7.757299-18.285063-13.821537-29.890229-18.161931-11.666732-4.340394-24.595564-6.525982-38.878846-6.525982l-46.112835 0L2596.509704 66.462421zM2642.622539-88.129473c9.912105 0 19.3009 1.508364 28.01247 4.555874 8.71157 3.016728 16.314955 7.387904 22.779371 13.175096 6.495199 5.787192 11.605166 12.805701 15.360684 21.178659 3.693952 8.342175 5.633277 17.915668 5.633277 28.720477 0 10.620112-1.908542 20.101256-5.633277 28.597346-3.755518 8.465307-8.865485 15.576165-15.360684 21.271007-6.464416 5.787192-14.067801 10.096802-22.779371 13.175096s-18.100365 4.555874-28.01247 4.555874l-23.179549 0 0-135.229429L2642.622539-88.129473zM2782.900369 66.462421l22.933286 0 0-173.862011-22.933286 0 0 173.862011ZM2968.0905 66.462421 2968.0905 46.853692 2919.207201 46.853692 2919.207201-107.430373 2896.304698-107.430373 2896.304698 46.853692 2847.452182 46.853692 2847.452182 66.462421ZM596.357781 746.211171c-50.699492 42.3881-106.632084 71.816585-178.541017 64.73651-149.912889-14.775808-298.656026-238.567739-86.777091-452.355216 56.301986-56.794513 170.106494-116.759669 168.81361-228.963463 4.432743-91.271399-76.310893-185.159348-174.323755-185.159348-148.281393 0-228.347805 164.288519-158.439762 282.925947 26.288626 40.941302 68.922989 83.360185 114.297034 118.421947-121.253977 136.922491-100.598628 262.024335-100.598628 262.024335C47.282587 485.47972 0 352.128049 0 230.935638c0-307.367596 225.454209-442.935638 410.151813-442.935638l0.030783 0c125.9022 0.061566 260.177359 52.608034 347.539325 160.963962 58.025831 72.032066 108.17123 187.745115 106.016425 320.758173C861.429626 419.111714 793.245427 590.326393 596.357781 746.211171"  horiz-adv-x="2994" />

    
    <glyph glyph-name="xiaoxi" unicode="&#58890;" d="M512-126.666667c6.037333 0 11.605333 2.986667 15.296 8.149333 15.018667 21.12 33.557333 44.394667 67.306667 71.488 25.216 20.245333 71.744 41.344 88.597333 46.528 181.12 56.256 298.154667 192.576 298.154667 347.349333 0 99.776-48.810667 194.538667-137.450667 266.858667-89.301333 72.853333-207.168 112.981333-331.882667 112.981333s-242.581333-40.128-331.882667-112.981333c-88.64-72.32-137.450667-167.082667-137.450667-266.858667 0-154.794667 117.418667-291.221333 299.136-347.605333 10.346667-3.178667 41.92-12.842667 71.146667-54.698667 3.648-5.248 9.28-8.256 15.402667-8.256 4.117333 0 8.042667 1.365333 11.349333 4.010667 8.576 6.762667 10.368 19.669333 3.989333 28.778667-36.928 52.906667-78.528 65.664-92.181333 69.845333-164.330667 51.029333-270.485333 171.904-270.485333 307.946667 0 89.002667 44.928 173.610667 126.570667 238.165333 82.005333 64.896 190.122667 100.608 304.426667 100.608s222.421333-35.712 304.426667-100.608c81.621333-64.554667 126.570667-149.162667 126.570667-238.165333 0-136.042667-106.176-256.917333-270.485333-307.946667-20.330667-6.314667-71.445333-29.461333-100.928-53.12-37.610667-30.186667-58.944-57.130667-74.837333-79.488-6.421333-9.066667-4.736-21.973333 3.776-28.821333C503.850667-125.237333 507.818667-126.666667 512-126.666667zM512 342.666667m-42.666667 0a2 2 0 1 0 85.333333 0 2 2 0 1 0-85.333333 0ZM725.333333 342.666667m-42.666667 0a2 2 0 1 0 85.333333 0 2 2 0 1 0-85.333333 0ZM298.666667 342.666667m-42.666667 0a2 2 0 1 0 85.333333 0 2 2 0 1 0-85.333333 0Z"  horiz-adv-x="1024" />

    
    <glyph glyph-name="icon" unicode="&#59124;" d="M510.547417 106.232878 65.629231 561.717723c-12.697183 12.995989-33.517371 13.241582-46.505173 0.545422-12.994965-12.68695-13.241582-33.514301-0.545422-46.502104L485.937926 37.302973c6.718005-6.876618 15.71082-10.150174 24.609491-9.857509 8.906857-0.292666 17.895579 2.980891 24.616654 9.857509l467.35929 478.458069c12.69616 12.987802 12.449543 33.815153-0.545422 46.502104-12.988826 12.69616-33.816177 12.450567-46.50722-0.545422L510.547417 106.232878 510.547417 106.232878 510.547417 106.232878zM510.547417 106.232878"  horiz-adv-x="1024" />

    
    <glyph glyph-name="gengduo" unicode="&#58910;" d="M642.174253 391.40582C650.164439 384.164713 650.070886 373.825747 641.84009 366.623802L332.618569 96.05497C323.751654 88.296418 322.853148 74.818816 330.611697 65.951902 338.370249 57.084988 351.847851 56.186481 360.714765 63.94503L669.936288 334.513862C697.36486 358.513862 697.727953 398.641139 670.825747 423.021263L360.992414 703.807722C352.26205 711.719614 338.770837 711.056111 330.858944 702.325748 322.947053 693.595384 323.610556 680.104171 332.340919 672.192277L642.174253 391.40582Z"  horiz-adv-x="1024" />

    
    <glyph glyph-name="tianjia2" unicode="&#58980;" d="M197.12 456.96l629.76 0 0-145.92-629.76 0 0 145.92ZM439.04 698.88l145.92 0 0-629.76-145.92 0 0 629.76Z"  horiz-adv-x="1024" />

    
    <glyph glyph-name="xiaoshipinpaishe" unicode="&#58984;" d="M512-55.700492 512-55.700492c-242.840309 0-439.701515 196.861206-439.701515 439.701515S269.159691 823.701515 512 823.701515s439.701515-196.861206 439.701515-439.701515S754.840309-55.700492 512-55.700492zM512-39.711364 512-39.711364c234.009194 0 423.711364 189.702171 423.711364 423.712388S746.010217 807.712388 512 807.712388 88.288636 618.010217 88.288636 384 277.990806-39.711364 512-39.711364zM512-15.728185c220.763545 0 399.728185 178.96464 399.728185 399.728185S732.763545 783.728185 512 783.728185 112.271815 604.763545 112.271815 384 291.236455-15.728185 512-15.728185z"  horiz-adv-x="1024" />

    
    <glyph glyph-name="shang" unicode="&#58989;" d="M536.865794 626.364745l474.291996-474.291996c13.712002-13.712002 13.712002-35.917258 0-49.62926-13.712002-13.712002-35.917258-13.712002-49.62926 0L512 551.97202 62.47147 102.44349c-13.712002-13.712002-35.917258-13.712002-49.62926 0-13.712002 13.712002-13.712002 35.917258 0 49.62926L487.236534 626.364745c6.856001 6.856001 15.860897 10.232837 24.865794 10.232837S530.009793 633.220745 536.865794 626.364745z"  horiz-adv-x="1024" />

    
    <glyph glyph-name="qian" unicode="&#58895;" d="M504.902348 841.140555c-248.312412 0-449.610044-200.316282-449.610044-447.418123s201.297632-447.418123 449.610044-447.418123 449.610044 200.316282 449.610044 447.418123S753.21476 841.140555 504.902348 841.140555zM504.902348 2.126686c-216.272695 0-391.595746 175.323051-391.595746 391.595746S288.629653 785.318178 504.902348 785.318178s391.595746-175.323051 391.595746-391.595746S721.17402 2.126686 504.902348 2.126686zM668.955728 645.542738 668.955728 645.542738c-11.280928 11.280928-29.741371 11.280928-41.022299 0L504.361019 521.970328 381.870244 644.461103c-11.280928 11.280928-29.741371 11.280928-41.022299 0l0 0c-11.280928-11.280928-11.280928-29.741371 0-41.022299l109.182678-109.182678L374.370433 494.256126c-15.954367 0-29.006637-13.053294-29.006637-29.006637l0 0c0-15.954367 13.053294-29.006637 29.006637-29.006637l101.525278 0 0-65.805752L374.370433 370.4371c-15.954367 0-29.006637-13.053294-29.006637-29.006637l0 0c0-15.954367 13.053294-29.006637 29.006637-29.006637l101.525278 0 0-149.974733c0-15.954367 13.053294-29.006637 29.006637-29.006637l0 0c15.954367 0 29.006637 13.053294 29.006637 29.006637L533.908986 312.421778l101.525278 0c15.954367 0 29.006637 13.053294 29.006637 29.006637l0 0c0 15.954367-13.053294 29.006637-29.006637 29.006637l-101.525278 0 0 65.805752 101.525278 0c15.954367 0 29.006637 13.053294 29.006637 29.006637l0 0c0 15.954367-13.053294 29.006637-29.006637 29.006637l-76.742848 0 110.264313 110.264313C680.236656 615.80239 680.236656 634.26181 668.955728 645.542738z"  horiz-adv-x="1024" />

    
    <glyph glyph-name="arrow-down" unicode="&#58986;" d="M764.88 487.457l-236.643-236.643c-8.446-8.445-22.138-8.445-30.585 0l-236.643 236.643c-13.624 13.624-3.975 36.918 15.292 36.918h473.286c19.267 0.001 28.916-23.294 15.291-36.918z"  horiz-adv-x="1024" />

    
    <glyph glyph-name="shanchu" unicode="&#59345;" d="M512.825296-60.550819c-247.039419 0-447.309652 199.98166-447.309652 446.673156 0 246.692518 200.270233 446.669062 447.309652 446.669062 247.045559 0 447.321932-199.976544 447.321932-446.669062C960.146205 139.430842 759.869832-60.550819 512.825296-60.550819zM512.825296 776.957767c-216.158085 0-391.394155-174.986383-391.394155-390.83543s175.237093-390.839523 391.394155-390.839523c216.166271 0 391.396201 174.990476 391.396201 390.839523S728.991568 776.957767 512.825296 776.957767zM552.518321 385.960655l118.456902-118.28601c10.923794-10.886955 10.923794-28.571732 0-39.476083-10.921747-10.903328-28.625968-10.903328-39.529295 0l-118.467135 118.283963L393.721665 227.398336c-11.003612-10.994402-28.842909-10.994402-39.84959 0-11.003612 10.996448-11.003612 28.808116 0 39.788192l119.265314 119.082142L354.68151 504.552633c-10.923794 10.906397-10.923794 28.589129 0 39.495526 10.913561 10.906397 28.617781 10.906397 39.531342 0L512.669754 425.764196l120.155591 119.972419c10.996448 10.979052 28.826536 10.979052 39.84038 0 10.996448-10.994402 10.996448-28.825512 0-39.802518L552.518321 385.960655z"  horiz-adv-x="1024" />

    
    <glyph glyph-name="tongxun" unicode="&#58891;" d="M817.1 803.925 265.099 803.925c-67.346 0-122.137-54.732-122.137-122.008l0-41.701 48.657 0 0 41.701c0 40.446 32.963 73.352 73.479 73.352L817.1 755.269c40.513 0 73.475-32.905 73.475-73.352l0-595.833c0-40.446-32.962-73.352-73.475-73.352L265.099 12.732c-40.517 0-73.479 32.905-73.479 73.352l0 43.235-48.657 0 0-43.235c0-67.276 54.791-122.009 122.137-122.009L817.1-35.925c67.343 0 122.132 54.732 122.132 122.009L939.232 681.917C939.231 749.192 884.442 803.925 817.1 803.925zM109.098 476.726l122.617 0c13.437 0 24.328 10.892 24.328 24.329 0 13.436-10.892 24.328-24.328 24.328L109.098 525.383c-13.437 0-24.329-10.893-24.329-24.328C84.769 487.617 95.661 476.726 109.098 476.726zM109.098 350.209l122.616 0c13.437 0 24.328 10.892 24.328 24.328s-10.892 24.328-24.328 24.328L109.098 398.865c-13.437 0-24.329-10.892-24.329-24.328S95.661 350.209 109.098 350.209zM256.042 248.021c0 13.435-10.892 24.328-24.328 24.328L109.098 272.349c-13.437 0-24.329-10.894-24.329-24.328 0-13.438 10.893-24.329 24.329-24.329l122.616 0C245.15 223.691 256.042 234.582 256.042 248.021zM289.178 172.44c-9.188-23.31-28.549-80.006-0.642-93.596 11.712-5.705 26.864 0.696 32.053 7.69 7.499 10.109 3.079 26.45 6.412 39.747 5.531 22.072 13.281 43.269 23.72 60.902 31.041 52.444 79.212 90.586 145.522 107.701 15.22 3.927 31.69 3.688 48.722 6.41 27.479 4.388 57.859-4.775 77.568-10.898C685.7 270.771 737.101 229.71 762.287 172.44c4.701-12.82 9.403-25.645 14.103-38.463 6.845-23.017 0.38-48.856 24.362-55.774 6.502-1.877 14.768-0.57 19.871 2.563 22.39 13.749 3.638 71.788-4.485 91.674-25.933 63.468-65.26 106.912-121.163 140.395-11.014 6.596-23.556 14.313-37.182 17.949-0.214 0.428-0.428 0.854-0.642 1.281 65.283 36.381 114.216 144.772 74.366 241.684-29.413 71.531-90.18 122.068-192.963 120.522-5.77-0.642-11.541-1.283-17.31-1.924-12.18-3.205-24.362-6.411-36.541-9.616-39.276-15.451-71.123-41.419-92.956-74.364-24.382-36.792-43.215-104.722-25.642-163.473 9.951-33.27 25.369-56.578 44.234-80.134 9.142-11.416 22.979-26.234 37.182-32.053 0.214-0.428 0.428-0.856 0.642-1.282C373.24 297.34 319.908 250.398 289.178 172.44zM410.341 540.415c13.514 43.118 43.73 76.558 83.338 93.596 14.001 6.021 30.966 5.791 45.517 11.539 26.387 0.136 47.42-1.634 66.03-8.975 66.538-26.252 122.327-109.51 82.698-200.015-20.677-47.221-61.644-76.408-119.882-86.544-25.682-4.471-52.548 3.158-69.877 10.256C441.007 383.687 382.985 453.139 410.341 540.415z"  horiz-adv-x="1024" />

    
    <glyph glyph-name="xuanzhong" unicode="&#59193;" d="M512.000512-51.115935c-239.921301 0-435.107749 195.206914-435.107749 435.126168S272.07921 819.116959 512.000512 819.116959c239.919255 0 435.104679-195.187471 435.104679-435.106726S751.919766-51.115935 512.000512-51.115935zM512.000512 777.605519c-217.037105 0-393.597333-176.570461-393.597333-393.59631 0-217.036082 176.560228-393.615753 393.597333-393.615753 217.035058 0 393.595286 176.580694 393.595286 393.615753C905.595798 601.036082 729.03557 777.605519 512.000512 777.605519zM468.665541 217.1796 276.113083 380.452197c-8.756431 7.408737-9.829879 20.512173-2.410909 29.248138 7.417947 8.734942 20.511149 9.819646 29.247114 2.410909l162.878624-138.099265 253.702166 262.793218c7.964392 8.27957 21.082154 8.492418 29.350468 0.515746 8.250918-7.954159 8.492418-21.099551 0.528026-29.338189L468.665541 217.1796z"  horiz-adv-x="1024" />

    
    <glyph glyph-name="baomi" unicode="&#58898;" d="M905.031956 365.586628l-38.015825 51.377134c10.219759 8.18338 20.37812 16.70138 30.203906 25.338085 12.189623 10.703783 13.397125 29.340235 2.681062 41.537022-5.591345 6.361895-13.635555 10.001795-22.10853 10.001795-7.14677 0-14.049994-2.599198-19.427468-7.326872-86.741573-76.213799-177.188538-123.624599-268.821515-140.947126-26.479071-4.997827-53.525054-7.54586-80.385818-7.552-46.38647 0-93.349061 7.573489-139.586129 22.49227-65.961294 21.295002-119.150704 54.013171-152.170748 77.704756-34.112935 24.469298-54.127781 44.457538-56.275701 46.647413-5.597485 5.77554-13.111622 8.969279-21.165042 8.969279-7.674796 0-14.939247-2.929726-20.445658-8.262174-5.647627-5.461385-8.841366-12.790304-8.970302-20.656459-0.141216-7.867178 2.795673-15.313777 8.262174-20.956288 0.572028-0.591471 14.049994-14.446014 37.904285-33.558303l-33.125445-42.776246c-4.817726-6.210445-6.92062-13.934361-5.928013-21.734 1.003863-7.798617 4.966105-14.737656 11.172457-19.532869 5.123694-3.979638 11.524474-6.17156 18.012236-6.17156 9.193383 0 17.673521 4.158716 23.287379 11.404748l34.223452 44.204781c33.314757-21.917172 68.211545-40.503483 103.801111-55.289234l-21.922289-47.306422c-6.825452-14.724353-0.391926-32.254611 14.334473-39.081087 3.911076-1.807159 8.070816-2.728134 12.349259-2.728134 11.4334 0 21.922289 6.695492 26.717502 17.054421l24.194028 52.244898c38.257326-11.358699 77.133751-18.281365 115.609041-20.617573l0-53.937446c0-16.22145 13.199627-29.430286 29.429263-29.430286 16.220427 0 29.4221 13.208836 29.4221 29.430286l0 53.907771c20.499893 1.220804 41.089837 3.759627 61.248969 7.538697 22.287609 4.158716 44.813648 9.987468 67.010183 17.330714l25.51307-53.023634c4.878101-10.128685 15.293311-16.664541 26.532283-16.664541 4.442172 0 8.735965 0.98749 12.757558 2.921539 14.602579 7.037277 20.771069 24.666796 13.749142 39.283702l-23.587208 48.994877c33.021068 14.95562 66.031902 33.619702 98.18009 55.527664l37.993313-51.350528c5.520737-7.479345 14.371312-11.941983 23.677259-11.941983 6.324032 0 12.369725 2.000564 17.47193 5.776563 6.340405 4.674463 10.461259 11.530614 11.619642 19.298532 1.191128 7.77815-0.74292 15.546068-5.424546 21.8701L905.031956 365.586628 905.031956 365.586628z"  horiz-adv-x="1024" />

    
    <glyph glyph-name="shibai" unicode="&#59127;" d="M512 896C229.2 896 0 666.8 0 384s229.2-512 512-512 512 229.2 512 512S794.8 896 512 896zM481.933333 711.266667l67.866667 0c16.733333 0 29.133333-5.666667 27.733333-30.866667l-15.6-403.133333c-0.666667-11.333333-9.866667-20.333333-20.666667-20.333333l-50.8 0c-10.8 0-20.066667 9-20.666667 20.333333l-15.6 403.133333C452.733333 705.533333 465.133333 711.266667 481.933333 711.266667zM515.866667 49.066667c-38.266667 0-69.333333 31.066667-69.333333 69.333333 0 38.266667 31 69.266667 69.333333 69.266667 38.266667 0 69.266667-31 69.266667-69.266667C585.133333 80.133333 554.133333 49.066667 515.866667 49.066667z"  horiz-adv-x="1024" />

    
    <glyph glyph-name="display-copy" unicode="&#58893;" d="M510.952 217.924c-87.518 0-158.706 71.208-158.706 158.723 0 87.521 71.188 158.731 158.706 158.731 87.512 0 158.741-71.21 158.741-158.731-0-87.515-71.229-158.723-158.741-158.723zM510.952 478.632c-56.229 0-101.964-45.757-101.964-101.985 0-56.225 45.734-101.974 101.964-101.974 56.224 0 101.998 45.749 101.998 101.974-0 56.228-45.774 101.985-101.998 101.985zM510.952 92.471c-190.255 0-360.747 106.485-444.866 277.899-3.878 7.885-3.878 17.122 0 25.012 84.119 171.397 254.611 277.884 444.866 277.884 190.296 0 360.783-106.487 444.9-277.884 3.877-7.89 3.877-17.127 0-25.012-84.117-171.414-254.611-277.899-444.9-277.899zM123.385 382.876c76.547-144.504 223.763-233.668 387.567-233.668 163.806 0 311.058 89.164 387.606 233.668-76.548 144.483-223.801 233.644-387.606 233.644-163.768 0-311.020-89.161-387.567-233.644z"  horiz-adv-x="1024" />

    
    <glyph glyph-name="kefu1" unicode="&#58955;" d="M595.7878 127.446903c20.279882-11.518335 33.920554-30.045293 39.512922-50.635237 5.573949-20.484543 3.221368-43.213197-8.502651-63.12162l-0.067538-0.12382 0.067538 0c-11.724019-19.938098-30.575366-33.337269-51.534723-38.818097-20.904099-5.550413-43.972491-3.170203-64.316841 8.352225l-0.491187 0.295735c-19.59836 11.277858-32.873712 29.068036-38.70758 48.802496L321.293075 32.198585c-0.86981 0-1.795902 0.067538-2.665713 0.121773-52.28276 1.524726-125.83801 16.578584-179.235151 50.269917-42.97886 27.119661-73.677023 65.993017-73.677023 119.255081L65.715189 395.293207c0 19.015076 7.942903 36.328393 20.646226 48.867988 12.785188 12.498662 30.399357 20.293185 49.738821 20.293185l9.997702 0c7.738241 87.618547 47.194882 166.409031 106.971313 225.13862 66.9846 65.813938 159.51297 106.523105 261.724887 106.523105 102.21294 0 194.793498-40.708144 261.778098-106.523105 59.721173-58.675354 99.112322-137.465838 106.917078-225.13862l4.40738 0c19.340487 0 36.954657-7.861038 49.672306-20.34742 0.50142-0.490164 0.991584-1.033539 1.482771-1.591241 11.914354-12.485359 19.230993-29.187763 19.230993-47.222511l0-217.10055c0-18.823718-7.998161-36.125779-20.770046-48.676629l0.056282-0.056282c-12.772908-12.55392-30.453592-20.428262-49.672306-20.428262l-64.004733 0c-19.165502 0-36.832883 7.874341-49.672306 20.428262l0-0.065492c-12.717649 12.551874-20.713764 29.797653-20.713764 48.799426L753.505891 395.293207c0 19.015076 7.928576 36.328393 20.646226 48.867988 12.785188 12.498662 30.385031 20.293185 49.739844 20.293185l12.647041 0c-7.68503 74.819033-41.863457 142.090159-93.14133 192.550411-58.483996 57.450457-139.301649 92.976578-228.604558 92.976578-89.25072 0-170.055071-35.526121-228.539067-92.976578-51.288107-50.392714-85.400019-117.662817-93.030813-192.550411l6.881734 0c19.409049 0 36.96796-7.861038 49.671283-20.34742 0.571005-0.490164 1.061169-1.033539 1.497097-1.591241 11.914354-12.485359 19.22997-29.187763 19.22997-47.222511l0-195.950857c0-12.743232-10.484795-23.108301-23.447015-23.108301s-23.433712 10.365068-23.433712 23.108301L223.622592 395.293207c0 5.848195-2.366907 11.275811-6.093788 15.355733l-0.925069 0.856507c-4.27128 4.202719-10.106172 6.827499-16.498766 6.827499l-64.005756 0c-6.379291 0-12.268418-2.62478-16.551978-6.827499-4.217045-4.148483-6.881734-9.92914-6.881734-16.21224l0-193.446827c0-34.92851 21.705348-61.370743 52.037167-80.507592 45.698808-28.872584 109.569488-41.779545 155.159826-43.075051l1.428535 0.069585 150.522202 0c1.850138 6.324032 4.529153 12.541641 8.064676 18.579147l0 0.052189c11.710716 19.940145 30.507828 33.339316 51.467185 38.887682 20.904099 5.479805 44.037982 3.099594 64.318888-8.40646l0.069585-0.067538L595.7878 127.446903zM573.402977 86.970026c-0.871857 0.435928-1.74269 0.923022-2.545986 1.469468-8.676613 4.447289-18.48398 5.234211-27.405163 2.87242-9.369392-2.436492-17.801435-8.473999-23.080671-17.372669l-0.067538 0c-3.223415-5.548366-4.826935-11.640108-4.950755-17.668405l0-1.033539 0-0.731664c0.067538-3.048429 0.503467-6.02625 1.291412-8.897647 2.367931-8.769734 7.944949-16.700357 16.200984-21.869077 0.99363-0.433882 1.970888-1.046842 2.910283-1.644453 8.746198-4.447289 18.48398-5.248537 27.405163-2.870374 9.004071 2.38021 17.124006 7.982812 22.38687 16.322757 0.503467 0.867764 1.006933 1.713015 1.564635 2.501984 4.460592 8.540514 5.262864 18.155499 2.910283 26.874067C587.60135 73.817472 581.887208 81.803353 573.402977 86.970026zM823.892985 418.332946c-6.393617 0-12.283768-2.62478-16.568351-6.827499-4.214998-4.148483-6.881734-9.92914-6.881734-16.21224l0-217.10055c0-6.215562 2.665713-11.996219 6.949272-16.198937l-0.067538 0 0.067538-0.065492c4.217045-4.149507 10.107195-6.760984 16.500812-6.760984l64.004733 0c6.324032 0 12.147668 2.680039 16.431228 6.883781l0.067538-0.056282 0.054235 0.056282c4.217045 4.14746 6.881734 9.927093 6.881734 16.142655L911.332453 395.293207c0 5.848195-2.284019 11.275811-6.011924 15.355733l-0.923022 0.856507c-4.285606 4.202719-10.105149 6.827499-16.498766 6.827499L823.892985 418.332946z"  horiz-adv-x="1024" />

    
    <glyph glyph-name="tishi5" unicode="&#58881;" d="M508.8 851.2c-256 0-464-208-464-464s208-464 464-464 464 208 464 464-208 464-464 464z m0-880c-230.4 0-416 185.6-416 416s185.6 416 416 416 416-185.6 416-416-185.6-416-416-416zM521.6 243.2c12.8 0 22.4 9.6 22.4 22.4V694.4c0 12.8-9.6 22.4-22.4 22.4-12.8 0-22.4-9.6-22.4-22.4v-428.8c-3.2-9.6 9.6-22.4 22.4-22.4zM486.4 147.2a1.1 1.1 0 1 1 70.4 0 1.1 1.1 0 1 1-70.4 0z"  horiz-adv-x="1024" />

    
    <glyph glyph-name="chenggong" unicode="&#58896;" d="M512 896c-282.88 0-512-229.12-512-512s229.12-512 512-512 512 229.12 512 512-229.12 512-512 512z m339.2-344.32l-396.8-403.2c-3.84-3.84-8.96-6.4-14.08-6.4-2.56 0-5.12 0-7.68 2.56l-1.28 1.28-226.56 241.92c-5.12 5.12-5.12 12.8 0 16.64l33.28 33.28c5.12 5.12 11.52 5.12 16.64 0l189.44-140.8 358.4 302.08c5.12 3.84 12.8 3.84 16.64 0l33.28-33.28c2.56-2.56 2.56-10.24-1.28-14.08z"  horiz-adv-x="1024" />

    
    <glyph glyph-name="mima" unicode="&#58894;" d="M518.1 89.4H506c-11.4 0-20.7 9.3-20.7 20.7V349.3c0 11.4 9.3 20.7 20.7 20.7h12.1c11.4 0 20.7-9.3 20.7-20.7v-239.2c0-11.3-9.3-20.7-20.7-20.7zM770.1 488.1h-23.5v57.5c0.4 5.4 0.5 10.7 0.5 15.9 0 62.8-24.5 121.8-68.9 166.2-44.4 44.5-103.4 69-166.2 69-62.8 0-121.8-24.5-166.2-68.9-44.4-44.4-68.9-103.4-68.9-166.2v-73.4h-23c-63.5 0-115.2-51.7-115.2-115.2v-286.3c0-63.5 51.7-115.2 115.2-115.2h516.2c63.5 0 115.2 51.7 115.2 115.2V372.9c0 63.6-51.7 115.2-115.2 115.2z m-440.3 73.5c0 100.4 81.7 182.2 182.2 182.2 100.4 0 182.2-81.7 182.2-182.2 0-4.3-0.2-8.7-0.5-13.1l-0.1-0.9v-59.4H329.8v73.4z m502.6-475c0-34.4-28-62.3-62.3-62.3H253.9c-34.4 0-62.3 28-62.3 62.3V372.9c0 34.4 28 62.3 62.3 62.3h516.2c34.4 0 62.3-28 62.3-62.3v-286.3z"  horiz-adv-x="1024" />

    
    <glyph glyph-name="xitong_duankailianjie" unicode="&#60085;" d="M475.761778 574.919111l120.888889 120.860445a170.808889 170.808889 0 0 0 241.322666 0 170.666667 170.666667 0 0 0-0.085333-241.493334l-118.129778-118.129778a28.444444 28.444444 0 1 1 40.220445-40.220444l118.129777 118.158222a227.555556 227.555556 0 0 1 0.085334 321.877334c-88.746667 88.746667-232.96 88.832-321.792 0l-120.860445-120.832a28.444444 28.444444 0 1 1 40.220445-40.220445z m111.701333-371.029333l-131.811555-131.84c-66.503111-66.474667-174.648889-66.360889-241.208889 0.199111a170.780444 170.780444 0 0 0 0.113777 241.436444l146.773334 146.801778a28.444444 28.444444 0 0 1-40.192 40.220445l-146.801778-146.773334c-88.888889-88.888889-88.945778-233.073778-0.085333-321.905778 88.746667-88.746667 232.903111-88.917333 321.621333-0.199111l131.84 131.84a28.444444 28.444444 0 0 1-40.248889 40.220445zM236.544 581.660444l-85.333333 28.444445a28.444444 28.444444 0 0 1-17.976889-53.987556l85.333333-28.444444a28.444444 28.444444 0 1 1 17.976889 53.987555zM304.554667 688.554667l-85.333334 85.333333a28.444444 28.444444 0 1 1-40.220444-40.220444l85.333333-85.333334a28.444444 28.444444 0 0 1 40.220445 40.220445zM901.888 62.776889l-85.333333 85.333333a28.444444 28.444444 0 0 1-40.220445-40.220444l85.333334-85.333334a28.444444 28.444444 0 0 1 40.220444 40.220445zM426.666667 696.888889V782.222222a28.444444 28.444444 0 0 1-56.888889 0v-85.333333a28.444444 28.444444 0 0 1 56.888889 0zM712.618667 13.738667V99.555556a28.444444 28.444444 0 1 1-56.888889 0v-85.816889a28.444444 28.444444 0 0 1 56.888889 0zM840.135111 197.632l85.276445 2.986667a28.444444 28.444444 0 1 1-1.991112 56.860444l-85.276444-2.986667a28.444444 28.444444 0 1 1 1.991111-56.860444z"  horiz-adv-x="1024" />

    
    <glyph glyph-name="wancheng" unicode="&#58882;" d="M217.98912 401.92l155.88352-155.88352s48.37888 76.5952 162.59072 202.9056c114.22208 126.32064 309.07392 275.47648 309.07392 275.47648l28.22144-63.1552s-149.16608-161.2544-237.8496-290.25792c-88.68352-128.9984-208.29184-345.35424-208.29184-345.35424l-282.19392 306.3808L217.98912 401.92z"  horiz-adv-x="1024" />

    
    <glyph glyph-name="jiazai" unicode="&#58883;" d="M537.317 621.212c-70.708 0-128.253 57.518-128.253 128.228 0 70.68 57.547 128.228 128.253 128.228 70.707 0 128.228-57.518 128.228-128.228 0-70.71-57.518-128.228-128.228-128.228zM264.279 519.389c-64.578 0-117.144 52.54-117.144 117.146s52.566 117.145 117.145 117.145c64.58 0 117.146-52.54 117.146-117.146 0-64.577-52.566-117.146-117.146-117.146zM148.258 254.399c-56.97 0-103.3 46.327-103.3 103.298 0 56.946 46.328 103.272 103.3 103.272 56.946 0 103.272-46.328 103.272-103.272-0.001-56.97-46.33-103.3-103.272-103.298zM264.279-8.131c-48.296 0-87.593 39.294-87.593 87.594 0 48.296 39.322 87.591 87.593 87.591s87.594-39.294 87.594-87.59c0-48.3-39.295-87.595-87.594-87.595zM537.317-108.503c-42.193 0-76.51 34.316-76.51 76.51 0 42.197 34.315 76.51 76.51 76.51s76.51-34.313 76.51-76.51c0-42.195-34.315-76.51-76.51-76.51zM814.488 20.817c-34.040 0-61.761 27.693-61.761 61.761s27.722 61.76 61.761 61.76c34.042 0 61.759-27.691 61.759-61.76 0-34.068-27.72-61.76-61.759-61.76zM927.993 306.555c-27.938 0-50.678 22.74-50.678 50.677 0 27.939 22.74 50.68 50.678 50.68s50.707-22.74 50.707-50.68c0-27.938-22.768-50.677-50.707-50.677zM775.167 632.733c0-21.717 17.605-39.322 39.32-39.322 21.717 0 39.323 17.606 39.323 39.322 0 21.718-17.606 39.323-39.323 39.323-21.715 0-39.32-17.604-39.32-39.323z"  horiz-adv-x="1024" />

    
    <glyph glyph-name="shuru" unicode="&#58880;" d="M917.408 9.008H454.64a31.232 31.232 0 0 1 0-62.448h462.768a31.216 31.216 0 1 1 0 62.448zM845.168 695.792c-3.136 39.232-21.008 74.896-50.304 100.4a13.792 13.792 0 0 1-1.056 0.864 141.536 141.536 0 0 1-104.736 33.936c-38.672-3.264-73.728-21.712-98.704-51.968L145.728 240.608a50.24 50.24 0 0 1-9.952-19.424L76.928 0a51.424 51.424 0 0 1 15.696-51.504 50.24 50.24 0 0 1 54.208-7.584l202.768 95.664a51.2 51.2 0 0 1 17.328 13.472l444.672 538.464a148.912 148.912 0 0 1 33.568 107.28zM320.496 91.936L143.84 8.576l51.68 194.224L546.16 627.36l130.496-104.16-356.16-431.264z m442.928 536.336l-46.992-56.896-130.496 104.16 52.608 63.712a80.656 80.656 0 0 0 55.76 29.488 79.936 79.936 0 0 0 59.536-19.696l0.784-0.672a85.84 85.84 0 0 0 28.288-57.584 86.864 86.864 0 0 0-19.488-62.512z"  horiz-adv-x="1024" />

    
    <glyph glyph-name="xialasanjiaoxing" unicode="&#58904;" d="M238.129559 569.048816l273.847863 0.812806 275.338008-2.370684c16.685099 0 31.405918-0.925696 36.305331-4.696212 11.808264-8.986021 10.498743-27.477356-0.022578-37.953521L532.229836 205.724567a26.416193 26.416193 0 0 0-20.252414-7.563611c-7.292675-0.383825-14.675663 2.032015-20.252414 7.563611L200.311505 524.841205c-10.498743 10.476165-11.650218 28.741721 0 37.953521 5.418706 4.244653 14.81113 6.25409 37.818054 6.25409z"  horiz-adv-x="1024" />

    
    <glyph glyph-name="shenheshijian" unicode="&#59126;" d="M512.033257 891.402285C231.812111 891.402285 4.598226 664.254915 4.598226 384.001023c0-280.222169 227.214908-507.403309 507.435031-507.403308 280.222169 0 507.368516 227.181139 507.368517 507.403308 0 280.253892-227.146347 507.401262-507.368517 507.401262z m253.770728-563.386344H496.371556c-22.952758 0.020466-41.554418 18.62008-41.572838 41.572838V639.020184a41.60456 41.60456 0 1 0 83.213214 0V411.229155h227.792053c22.978341 0 41.605583-18.629289 41.605583-41.606607s-18.627243-41.606607-41.605583-41.606607z"  horiz-adv-x="1024" />

    
    <glyph glyph-name="zuoyou" unicode="&#58922;" d="M777.852 359.146l-473.689-473.689c-7.581-7.581-18.053-12.269-29.621-12.269-23.135 0-41.89 18.755-41.89 41.89 0 11.568 4.689 22.040 12.269 29.621l448.846 448.846-434.434 434.514c-6.915 7.152-11.176 16.908-11.176 27.658 0 21.988 17.825 39.813 39.813 39.813 10.751 0 20.506-4.261 27.669-11.186l450.428-450.428c5.447-5.544 9.262-12.708 10.658-20.703-0.864 5.573 0.33 6.291 1.127 5.097 7.558-7.576 12.232-18.032 12.232-29.581 0-11.548-4.674-22.005-12.233-29.581z"  horiz-adv-x="1024" />

    
    <glyph glyph-name="zuoyou1" unicode="&#58923;" d="M246.148 408.854l473.689 473.689c7.581 7.581 18.053 12.269 29.621 12.269 23.135 0 41.89-18.755 41.89-41.89 0-11.568-4.689-22.040-12.269-29.621l-448.846-448.846 434.434-434.514c6.915-7.152 11.176-16.908 11.176-27.658 0-21.988-17.825-39.813-39.813-39.813-10.751 0-20.506 4.261-27.669 11.186l-450.428 450.428c-5.447 5.544-9.262 12.708-10.658 20.703 0.864-5.573-0.33-6.291-1.127-5.097-7.558 7.576-12.232 18.032-12.232 29.581 0 11.548 4.674 22.005 12.233 29.581z"  horiz-adv-x="1024" />

    
    <glyph glyph-name="fanhui" unicode="&#58937;" d="M359.571831 384l338.569014 338.569014c6.219718 6.219718 6.219718 16.405634 0 22.625352-6.219718 6.219718-16.405634 6.219718-22.625352 0L325.588732 395.357746c-6.219718-6.219718-6.219718-16.405634 0-22.625352l349.926761-349.92676c3.15493-3.15493 7.211268-4.687324 11.357746-4.687324 4.056338 0 8.202817 1.532394 11.357747 4.687324 6.219718 6.219718 6.219718 16.405634 0 22.625352L359.571831 384z"  horiz-adv-x="1024" />

    
    <glyph glyph-name="home_default" unicode="&#58943;" d="M512 748.169014C310.174648 748.169014 146.659155 584.653521 146.659155 382.828169S310.174648 17.577465 512 17.577465s365.340845 163.515493 365.340845 365.340845S713.735211 748.169014 512 748.169014z m0-697.419718c-183.43662 0-332.078873 148.732394-332.078873 332.078873s148.732394 332.078873 332.078873 332.078873 332.078873-148.732394 332.078873-332.078873-148.732394-332.078873-332.078873-332.078873zM504.51831 640.721127l262.670422-270.061972-23.436619-22.715493L481.08169 618.005634l23.43662 22.715493zM527.594366 618.005634L265.014085 347.943662l-23.346479 22.715493 262.670422 270.061972 23.256338-22.715493zM304.946479 430.602817h27.673239v-198.309859H304.946479v198.309859z m364.169014 6.4H696.51831v-204.709859h-27.402817V437.002817zM330.276056 260.146479h130.794367v-27.853521H330.276056v27.853521z m221.83662 0h117.002817v-27.853521H552.112676v27.853521zM442.411268 347.943662h123.673239v-27.132394H442.411268V347.943662zM433.126761 347.943662h27.853521v-109.611268h-27.853521V347.943662z m105.194366 0h27.673239v-115.650704h-27.673239V347.943662z"  horiz-adv-x="1024" />

    
    <glyph glyph-name="my_default" unicode="&#58944;" d="M512 748.169014C310.535211 748.169014 146.659155 584.292958 146.659155 382.828169S310.535211 17.577465 512 17.577465s365.340845 163.876056 365.340845 365.340845S713.374648 748.169014 512 748.169014z m0-697.419718c-183.076056 0-332.078873 149.002817-332.078873 332.078873s149.002817 332.078873 332.078873 332.078873 332.078873-149.002817 332.078873-332.078873-149.002817-332.078873-332.078873-332.078873zM576.090141 357.949296c37.588732 20.822535 63.278873 60.214085 63.278873 106.095774 0 67.15493-54.625352 121.690141-121.690141 121.690141-67.15493 0-121.690141-54.625352-121.690141-121.690141 0-44.078873 23.887324-82.478873 59.132395-103.752112-69.408451-23.797183-119.707042-88.969014-119.707042-166.309859h28.033802c0 81.847887 66.614085 148.552113 148.552113 148.552112s148.552113-66.614085 148.552113-148.552112h28.033802c0 74.63662-46.873239 138.276056-112.495774 163.966197zM424.112676 464.04507c0 51.650704 41.915493 93.566197 93.566197 93.566198s93.566197-41.915493 93.566197-93.566198S569.329577 370.478873 517.678873 370.478873c-51.560563 0.090141-93.566197 42.005634-93.566197 93.566197z"  horiz-adv-x="1024" />

    
    <glyph glyph-name="my_check" unicode="&#58946;" d="M512 748.169c-201.465 0-365.341-163.876-365.341-365.341s163.876-365.251 365.341-365.251 365.341 163.876 365.341 365.341-163.966 365.251-365.341 365.251zM660.462 193.983c0 81.848-66.524 148.552-148.462 148.552-81.848 0-148.552-66.614-148.552-148.552h-28.034c0 77.431 50.389 142.603 119.707 166.31-35.245 21.363-59.132 59.673-59.132 103.752 0 67.155 54.625 121.69 121.69 121.69 67.155 0 121.69-54.625 121.69-121.69 0-45.882-25.69-85.273-63.279-106.096 65.623-25.69 112.406-89.42 112.406-164.056h-27.944v0.090h-0.090zM611.335 464.045c0 51.651-41.915 93.566-93.566 93.566s-93.566-41.915-93.566-93.566 41.915-93.566 93.566-93.566c51.651 0.090 93.566 42.006 93.566 93.566z"  horiz-adv-x="1024" />

    
    <glyph glyph-name="home_check" unicode="&#58947;" d="M332.71 417.442v-157.296h100.417v87.797h132.868v-87.797h103.121v164.417l-164.777 169.465-171.628-176.586zM512 748.169c-201.825 0-365.341-163.515-365.341-365.341s163.515-365.251 365.341-365.251 365.341 163.515 365.341 365.341-163.606 365.251-365.341 365.251zM743.752 347.944l-47.144 48.496v-164.056h-158.197v88.518h-77.431v-88.428h-156.034v156.575l-39.932-41.014-23.437 22.715 239.955 246.806-0.541 0.541 19.47 18.93 3.696 3.786 0.090-0.090 0.090 0.090 2.704-2.704 20.552-19.921-0.541-0.541 240.045-246.806-23.346-22.896z"  horiz-adv-x="1024" />

    
    <glyph glyph-name="bangzhuzhongxin" unicode="&#58917;" d="M421.624242 719.90303v-180.880808H240.743434v-490.925252h542.513132V719.90303zM292.331313 48.09697h490.925253V539.022222zM240.743434 539.022222h180.880808V719.90303zM613.107071 209.713131h45.252525v-45.252525h-45.252525zM658.403556 507.548444v-258.585858h-45.252526v258.585858z"  horiz-adv-x="1024" />

    
    <glyph glyph-name="guanyuwomen" unicode="&#58918;" d="M370.036364 86.884848h-155.151516v155.151516zM512 384m-335.90303 0a335.90303 335.90303 0 1 1 671.80606 0 335.90303 335.90303 0 1 1-671.80606 0ZM512 719.90303c-17.583838 0-34.909091-1.422222-51.717172-4.008081C621.252525 691.070707 744.468687 551.951515 744.468687 384S621.252525 76.929293 460.282828 52.105051c16.808081-2.585859 34.133333-4.008081 51.717172-4.008081 185.535354 0 335.90303 150.367677 335.90303 335.90303S697.535354 719.90303 512 719.90303zM382.965657 458.214141m-38.787879 0a38.787879 38.787879 0 1 1 77.575757 0 38.787879 38.787879 0 1 1-77.575757 0ZM628.105051 458.214141m-38.787879 0a38.787879 38.787879 0 1 1 77.575757 0 38.787879 38.787879 0 1 1-77.575757 0ZM512 138.60202c64.258586 0 116.363636 52.105051 116.363636 116.363637H395.636364c0-64.258586 52.105051-116.363636 116.363636-116.363637z"  horiz-adv-x="1024" />

    
    <glyph glyph-name="xinshoubidu" unicode="&#58919;" d="M188.767677 713.69697l323.232323-64.646465 323.232323 64.646465v-594.747475l-323.232323-64.646465-323.232323 64.646465zM188.767677 713.69697v-594.747475l323.232323-64.646465V649.050505zM480.323232 258.068687h51.717172v-45.252525h-51.717172zM564.880808 456.016162c0 30.254545-18.618182 51.329293-55.466667 51.329293-26.634343 0-50.424242-12.541414-73.050505-37.236364l-33.228282 30.771717c29.220202 32.193939 65.034343 54.432323 112.872727 54.432323 62.448485 0 104.727273-34.779798 104.727273-94.642424 0-76.541414-99.684848-89.6-89.212122-163.684848h-51.329293c-13.575758 83.006061 84.686869 104.080808 84.686869 159.030303z"  horiz-adv-x="1024" />

    
    <glyph glyph-name="bangzhuzhongxin1" unicode="&#58920;" d="M0 783.644444V-15.515152h1063.951515V783.644444h-1063.951515zM989.737374 56.888889H74.343434V711.111111h915.39394v-654.222222zM725.268687 636.183273v-358.270707h-73.69697v358.270707zM725.333333 204.282828v-73.696969h-73.696969v73.696969z"  horiz-adv-x="1063" />

    
    <glyph glyph-name="wodeyinhangqia" unicode="&#58921;" d="M0 783.644444V-15.515152h1063.951515V783.644444h-1063.951515zM989.737374 56.888889H74.343434V711.111111h915.39394v-654.222222zM148.040404 595.135354h764.121212v-73.69697H148.040404zM912.161616 213.333333H731.151515l-64.646464-84.040404h181.010101z"  horiz-adv-x="1063" />

    
    <glyph glyph-name="wodejiekuan" unicode="&#58924;" d="M0 783.644444V-15.515152h1063.951515V783.644444h-1063.951515zM989.737374 56.888889H74.343434V711.111111h915.39394v-654.222222zM559.740121 279.40202v271.515152h73.69697v-271.515152zM559.838384 353.09899h271.515151v-73.69697h-271.515151zM559.784081 331.389414l338.813414 338.812121 52.111515-52.110222-338.814707-338.813414z"  horiz-adv-x="1063" />

    
    <glyph glyph-name="shezhi" unicode="&#58925;" d="M0 783.644444V-15.515152h1063.951515V783.644444h-1063.951515zM989.737374 56.888889H74.343434V711.111111h915.39394v-654.222222zM553.373737 572.121212H912.161616v-73.69697H553.373737zM152.565657 572.121212h129.292929v-73.69697h-129.292929zM281.858586 645.818182h271.515151v-73.69697h-271.515151zM281.858586 498.424242h271.515151v-73.696969h-271.515151zM355.61503 645.850505v-221.090909h-73.696969v221.090909zM553.433212 645.850505v-221.090909h-73.69697v221.090909zM912.161616 208.161616H731.151515v73.69697h181.010101z"  horiz-adv-x="1063" />

    
    <glyph glyph-name="edurenzheng" unicode="&#58926;" d="M0 783.644444V-15.515152h1063.951515V783.644444h-1063.951515zM989.737374 56.888889H74.343434V711.111111h915.39394v-654.222222zM626.007919 299.472162l146.276849-146.276849-52.110223-52.111515-146.276848 146.276848zM912.184889 293.064404l-191.987071-191.988364-52.111515 52.110223 191.987071 191.988363zM151.919192 633.535354h206.868687v-73.69697H151.919192zM151.919192 486.141414h206.868687v-73.69697H151.919192z"  horiz-adv-x="1063" />

    
    <glyph glyph-name="yaoqinghaoyou" unicode="&#58927;" d="M532.040404 218.505051l532.040404 531.911111V783.644444h-69.430303L532.040404 321.034343 69.430303 783.644444h-69.430303v-33.228282zM0 783.644444V-15.515152h1063.951515V783.644444h-1063.951515zM989.737374 56.888889H74.343434V711.111111h915.39394v-654.222222z"  horiz-adv-x="1064" />

    
    <glyph glyph-name="youhuiquan" unicode="&#58928;" d="M304.355556 40.210101H74.343434V727.789899h230.012122V783.644444h-304.355556v-799.288888h304.355556zM444.193616 555.33899v-129.292929h-73.69697v129.292929zM510.577778 783.644444H989.737374v-55.854545H510.577778zM989.737374 783.644444v-743.434343H510.577778v-55.854545h553.50303V783.644444zM444.147071 342.052202v-129.292929h-73.69697v129.292929zM462.739394 783.644444c4.266667-8.40404 6.593939-17.842424 6.593939-27.927272 0-34.262626-27.79798-62.060606-62.060606-62.060606s-62.060606 27.79798-62.060606 62.060606c0 10.084848 2.456566 19.523232 6.59394 27.927272h-77.446465c-1.939394-9.050505-2.844444-18.359596-2.844444-27.927272 0-74.989899 60.767677-135.757576 135.757575-135.757576s135.757576 60.767677 135.757576 135.757576c0 9.567677-1.034343 18.876768-2.844444 27.927272h-77.446465zM358.4-15.644444c-4.266667 8.40404-6.593939 17.842424-6.593939 27.927272 0 34.262626 27.79798 62.060606 62.060606 62.060606s62.060606-27.79798 62.060606-62.060606c0-10.084848-2.456566-19.523232-6.59394-27.927272h77.446465c1.939394 9.050505 2.844444 18.359596 2.844444 27.927272 0 74.989899-60.767677 135.757576-135.757575 135.757576s-135.757576-60.767677-135.757576-135.757576c0-9.567677 1.034343-18.876768 2.844444-27.927272h77.446465z"  horiz-adv-x="1064" />

    
    <glyph glyph-name="weixuan" unicode="&#58929;" d="M512 845.575758C256.646465 845.575758 49.00202 637.931313 49.00202 382.577778c0-255.353535 207.644444-462.99798 462.99798-462.99798 255.353535 0 462.99798 207.644444 462.99798 462.99798C974.99798 637.931313 767.224242 845.575758 512 845.575758z m0-895.482829c-238.545455 0-432.484848 194.068687-432.484848 432.484849 0 238.545455 194.068687 432.484848 432.484848 432.484848s432.484848-194.068687 432.484848-432.484848-194.068687-432.484848-432.484848-432.484849z"  horiz-adv-x="1024" />

    
    <glyph glyph-name="yixuan" unicode="&#58930;" d="M512 845.575758C256.646465 845.575758 49.00202 637.931313 49.00202 382.577778c0-255.353535 207.644444-462.99798 462.99798-462.99798 255.353535 0 462.99798 207.644444 462.99798 462.99798C974.99798 637.931313 767.224242 845.575758 512 845.575758z m0-895.482829c-238.545455 0-432.484848 194.068687-432.484848 432.484849 0 238.545455 194.068687 432.484848 432.484848 432.484848s432.484848-194.068687 432.484848-432.484848-194.068687-432.484848-432.484848-432.484849zM512 675.426263c-161.486869 0-292.848485-131.361616-292.848485-292.848485s131.361616-292.848485 292.848485-292.848485S804.848485 221.090909 804.848485 382.577778c-0.129293 161.486869-131.490909 292.848485-292.848485 292.848485z"  horiz-adv-x="1024" />

    
    <glyph glyph-name="quan_weixuan" unicode="&#58931;" d="M641.241212 896c-282.794667 0-512-229.205333-512-512s229.205333-512 512-512 512 229.205333 512 512-229.205333 512-512 512z m0-981.333333C381.998545-85.333333 171.907879 124.757333 171.907879 384S381.998545 853.333333 641.241212 853.333333 1110.574545 643.242667 1110.574545 384 900.483879-85.333333 641.241212-85.333333z"  horiz-adv-x="1551" />

    
    <glyph glyph-name="quan_yixuan" unicode="&#58932;" d="M1043.417212 700.928C851.331879 519.168 694.659879 267.349333 644.654545 137.898667L351.449212 440.661333l75.178667 61.184 169.557333-134.997333C663.427879 448.085333 810.115879 606.634667 1012.441212 736.768 919.086545 834.816 787.331879 896 641.241212 896c-282.794667 0-512-229.205333-512-512s229.205333-512 512-512 512 229.205333 512 512c0 119.637333-41.045333 229.717333-109.824 316.928z"  horiz-adv-x="1551" />

    
    <glyph glyph-name="gaoji" unicode="&#58933;" d="M421.494949 338.747475H279.272727l-22.626262-45.252526-142.222223-284.444444-22.626262-45.252525h374.949495V338.747475h-45.252526z m0-329.69697H159.676768l142.222222 284.444444H421.494949v-284.444444zM557.252525 338.747475v-374.949495h374.949495l-22.626262 45.252525-142.222223 284.444444-22.626262 45.252526H557.252525z m45.252526-45.252526h119.595959l142.222222-284.444444H602.505051V293.494949zM512 804.20202c-103.563636 0-187.474747-83.911111-187.474747-187.474747s83.911111-187.474747 187.474747-187.474748 187.474747 83.911111 187.474747 187.474748S615.563636 804.20202 512 804.20202z m0-329.696969c-78.610101 0-142.222222 63.612121-142.222222 142.222222s63.612121 142.222222 142.222222 142.222222 142.222222-63.612121 142.222222-142.222222-63.612121-142.222222-142.222222-142.222222z"  horiz-adv-x="1024" />

    
    <glyph glyph-name="jichu" unicode="&#58934;" d="M91.79798 804.20202v-374.949495h374.949495V804.20202H91.79798z m329.696969-329.696969H137.050505V758.949495h284.444444v-284.444444zM557.252525 338.747475v-374.949495h374.949495V338.747475H557.252525z m329.69697-329.69697H602.505051V293.494949h284.444444v-284.444444zM91.79798 338.747475v-374.949495h374.949495V338.747475H91.79798z m329.696969-329.69697H137.050505V293.494949h284.444444v-284.444444z"  horiz-adv-x="1024" />

    
    <glyph glyph-name="jiafen" unicode="&#58935;" d="M421.494949 804.20202H279.272727l-22.626262-45.252525-142.222223-284.444444-22.626262-45.252526h374.949495V804.20202h-45.252526z m0-329.696969H159.676768l142.222222 284.444444H421.494949v-284.444444zM557.252525 804.20202v-374.949495h374.949495l-22.626262 45.252526-142.222223 284.444444L744.727273 804.20202H557.252525z m45.252526-45.252525h119.595959l142.222222-284.444444H602.505051V758.949495zM466.747475-36.20202V338.747475H91.79798l22.626262-45.252526 142.222223-284.444444 22.626262-45.252525h187.474748z m-45.252526 45.252525h-119.595959l-142.222222 284.444444H421.494949v-284.444444zM602.505051-36.20202h142.222222l22.626262 45.252525 142.222223 284.444444 22.626262 45.252526H557.252525v-374.949495h45.252526z m0 329.696969h261.818181l-142.222222-284.444444H602.505051V293.494949z"  horiz-adv-x="1024" />

    
    <glyph glyph-name="dengdai" unicode="&#58936;" d="M712.221049-53.610764H315.478455c-68.438097 0-123.982061 55.543963-123.982061 123.982061v309.955152c0 20.581022 16.613596 37.194618 37.194619 37.194618h570.317479c20.581022 0 37.194618-16.613596 37.194618-37.194618v-309.955152c0-68.438097-55.543963-123.982061-123.982061-123.982061zM836.20311 349.330934c-85.547622 0-154.977576-69.429954-154.977576-154.977576s69.429954-154.977576 154.977576-154.977576 154.977576 69.429954 154.977576 154.977576-69.429954 154.977576-154.977576 154.977576z m0-241.765019c-47.981057 0-86.787442 38.806385-86.787443 86.787443s38.806385 86.787442 86.787443 86.787442 86.787442-38.806385 86.787442-86.787442c0-47.857075-38.806385-86.787442-86.787442-86.787443zM353.416966 714.830048c-60.503246-60.503246-60.503246-158.697038 0-219.200283l48.229021 48.229022c-33.847103 33.847103-33.847103 88.895137 0 122.74224 60.503246 60.503246 60.503246 158.697038 0 219.200283l-48.229021-48.229022c33.847103-33.847103 33.847103-88.771155 0-122.74224zM353.346149 837.633343a34.095067 34.095067 0 1 1 48.216865 48.218547 34.095067 34.095067 0 1 1-48.216865-48.218547ZM353.369094 495.702378a34.095067 34.095067 0 1 1 48.216864 48.218548 34.095067 34.095067 0 1 1-48.216864-48.218548ZM489.797232 714.830048c-60.503246-60.503246-60.503246-158.697038 0-219.200283l48.229022 48.229022c-33.847103 33.847103-33.847103 88.895137 0 122.74224 60.503246 60.503246 60.503246 158.697038 0 219.200283l-48.229022-48.229022c33.847103-33.847103 33.847103-88.771155 0-122.74224zM489.725903 837.632103a34.095067 34.095067 0 1 1 48.216864 48.218548 34.095067 34.095067 0 1 1-48.216864-48.218548ZM489.749361 495.702378a34.095067 34.095067 0 1 1 48.216864 48.218548 34.095067 34.095067 0 1 1-48.216864-48.218548ZM626.177499 714.830048c-60.503246-60.503246-60.503246-158.697038 0-219.200283l48.229022 48.229022c-33.847103 33.847103-33.847103 88.895137 0 122.74224 60.503246 60.503246 60.503246 158.697038 0 219.200283l-48.229022-48.229022c33.847103-33.847103 33.847103-88.771155 0-122.74224zM626.104779 837.6305a34.095067 34.095067 0 1 1 48.216864 48.218548 34.095067 34.095067 0 1 1-48.216864-48.218548ZM626.128237 495.700775a34.095067 34.095067 0 1 1 48.216864 48.218548 34.095067 34.095067 0 1 1-48.216864-48.218548ZM984.981583-128H42.717922c-20.581022 0-37.194618 16.613596-37.194619 37.194618s16.613596 37.194618 37.194619 37.194618h942.263661c20.581022 0 37.194618-16.613596 37.194618-37.194618s-16.613596-37.194618-37.194618-37.194618z"  horiz-adv-x="1060" />

    
    <glyph glyph-name="xuhao_hui" unicode="&#58938;" d="M512 384m-448 0a448 448 0 1 1 896 0 448 448 0 1 1-896 0ZM620.032 178.176c-32.256-29.696-77.312-45.056-130.56-45.056-54.272 0-98.816 16.896-120.32 31.232l-12.8 8.704 31.232 92.16L409.6 250.88c13.312-8.704 45.056-22.016 77.312-22.016 33.792 0 69.632 16.384 69.632 61.44 0 31.232-21.504 64.512-81.408 64.512H424.96V443.904h49.152c28.672 0 69.12 16.384 69.12 52.736 0 27.648-17.92 43.008-50.176 43.008-25.6 0-52.736-12.288-68.096-23.04L403.456 501.76l-30.72 88.064 11.776 8.704c23.04 16.896 69.12 36.352 124.416 36.352 99.84 0 144.896-64 144.896-127.488 0-41.472-18.944-77.312-52.736-101.888 37.376-20.992 67.072-60.416 67.072-117.248-0.512-43.008-17.408-81.92-48.128-110.08z"  horiz-adv-x="1024" />

    
    <glyph glyph-name="xuhao" unicode="&#58939;" d="M512 384m-448 0a448 448 0 1 1 896 0 448 448 0 1 1-896 0ZM668.16 136.704h-312.32v70.144l52.736 55.296c95.744 97.792 141.312 154.624 141.312 211.968 0 40.96-19.456 61.44-57.344 61.44-29.184 0-56.32-16.896-73.728-30.72l-20.48-16.384-36.864 87.552 11.264 9.728c35.328 29.184 83.968 46.08 133.632 46.08 48.64 0 88.576-15.872 115.712-46.08 23.552-26.624 36.864-63.488 36.864-103.936 0-94.208-69.12-172.032-139.776-243.2l-4.608-4.608h153.6v-97.28z"  horiz-adv-x="1024" />

    
    <glyph glyph-name="xuhao_hui1" unicode="&#58940;" d="M512 384m-448 0a448 448 0 1 1 896 0 448 448 0 1 1-896 0ZM668.16 136.704h-312.32v70.144l52.736 55.296c95.744 97.792 141.312 154.624 141.312 211.968 0 40.96-19.456 61.44-57.344 61.44-29.184 0-56.32-16.896-73.728-30.72l-20.48-16.384-36.864 87.552 11.264 9.728c35.328 29.184 83.968 46.08 133.632 46.08 48.64 0 88.576-15.872 115.712-46.08 23.552-26.624 36.864-63.488 36.864-103.936 0-94.208-69.12-172.032-139.776-243.2l-4.608-4.608h153.6v-97.28z"  horiz-adv-x="1024" />

    
    <glyph glyph-name="xuhao1" unicode="&#58941;" d="M512 384m-448 0a448 448 0 1 1 896 0 448 448 0 1 1-896 0ZM593.408 140.288H486.4V511.488l-68.608-37.888-27.648 90.112 120.32 64h82.944v-487.424z"  horiz-adv-x="1024" />

    
    <glyph glyph-name="xuhao_hui2" unicode="&#58945;" d="M512 384m-448 0a448 448 0 1 1 896 0 448 448 0 1 1-896 0ZM593.408 140.288H486.4V511.488l-68.608-37.888-27.648 90.112 120.32 64h82.944v-487.424z"  horiz-adv-x="1024" />

    
    <glyph glyph-name="xuhao2" unicode="&#58948;" d="M512 384m-448 0a448 448 0 1 1 896 0 448 448 0 1 1-896 0ZM630.272 350.72V627.712H522.24l-184.32-299.008v-70.144h187.392v-118.272h104.96v118.272H686.08v92.16h-55.808z m-104.96 0H458.24l67.072 107.008v-107.008z"  horiz-adv-x="1024" />

    
    <glyph glyph-name="xuhao_hui3" unicode="&#58949;" d="M512 384m-448 0a448 448 0 1 1 896 0 448 448 0 1 1-896 0ZM630.272 350.72V627.712H522.24l-184.32-299.008v-70.144h187.392v-118.272h104.96v118.272H686.08v92.16h-55.808z m-104.96 0H458.24l67.072 107.008v-107.008z"  horiz-adv-x="1024" />

    
    <glyph glyph-name="xuhao3" unicode="&#58950;" d="M512 384m-448 0a448 448 0 1 1 896 0 448 448 0 1 1-896 0ZM620.032 178.176c-32.256-29.696-77.312-45.056-130.56-45.056-54.272 0-98.816 16.896-120.32 31.232l-12.8 8.704 31.232 92.16L409.6 250.88c13.312-8.704 45.056-22.016 77.312-22.016 33.792 0 69.632 16.384 69.632 61.44 0 31.232-21.504 64.512-81.408 64.512H424.96V443.904h49.152c28.672 0 69.12 16.384 69.12 52.736 0 27.648-17.92 43.008-50.176 43.008-25.6 0-52.736-12.288-68.096-23.04L403.456 501.76l-30.72 88.064 11.776 8.704c23.04 16.896 69.12 36.352 124.416 36.352 99.84 0 144.896-64 144.896-127.488 0-41.472-18.944-77.312-52.736-101.888 37.376-20.992 67.072-60.416 67.072-117.248-0.512-43.008-17.408-81.92-48.128-110.08z"  horiz-adv-x="1024" />

    
    <glyph glyph-name="jindu_yiwancheng" unicode="&#58951;" d="M48.614141 384c0-255.870707 207.515152-463.385859 463.385859-463.385859S975.385859 128.129293 975.385859 384 767.870707 847.385859 512 847.385859 48.614141 639.870707 48.614141 384M264.533333 406.755556l132.266667-132.266667s41.115152 65.034343 137.955556 172.218182c96.969697 107.183838 262.206061 233.761616 262.20606 233.761616l23.919192-53.527273S694.30303 490.149495 619.054545 380.638384c-75.248485-109.511111-176.743434-293.107071-176.743434-293.107071L202.989899 347.539394l61.543434 59.216162z"  horiz-adv-x="1024" />

    
    <glyph glyph-name="jindu_dangqian" unicode="&#58952;" d="M48.614141 384c0-255.870707 207.515152-463.385859 463.385859-463.385859S975.385859 128.129293 975.385859 384 767.870707 847.385859 512 847.385859 48.614141 639.870707 48.614141 384M512 384m-165.494949 0a165.494949 165.494949 0 1 1 330.989898 0 165.494949 165.494949 0 1 1-330.989898 0Z"  horiz-adv-x="1024" />

    
    <glyph glyph-name="yiyuqi" unicode="&#58954;" d="M1722.191313 405.1375l12.73125 27.30125 56.7575-26.465-12.73125-27.3025zM1534.781313 571.5c-20.875-7.625-43.25-14-66-18l93.5-43.625c-9.5 17.625-19 38.125-27.5 61.625zM1377.300063 431.68l11.2 24.01625 49.16625-22.925-11.2-24.0175zM1668.678813 290.485L1683.256313 321.75l56.7575-26.465-14.58-31.2675zM1695.761313 348.3625l14.105 30.2475 56.75625-26.465-14.10375-30.2475zM1397.220063 474.2875l10.67125 22.885 49.16625-22.925-10.67-22.885zM1862.031313 284.125c-4.875-10.5-10.375-22.25-16.5-33.5l64.75-30.25 24.75 53.125-64 29.875-9-19.25zM22.031313 896l2048-1024V896H22.031313zM1674.906313 460.5l13.75 29.5 29.5-13.75 19.5 41.875 30.625-14.25-19.5-41.875 56.75-26.5 19.5 41.875 31.25-14.625-19.5-41.875 26.25-12.25-13.75-29.5-26.25 12.25-66.25-142 24.75-11.5-13.75-29.5-177.25 82.625 13.75 29.5 33.875-15.75 66.25 142-29.5 13.75zM1368.531313 412.75l-22.75-48.75-26.625 12.375L1392.281313 533.25l102.25-47.75-61.25-131.375c-5.75-12.375-10.5-17.75-20-18.125-10.25-0.125-21.375 4.625-37.375 12.125 2.125 7.375 2.875 18.625 3 26.5 9.625-5 18.375-9 21.5-10 3.25-1.5 4.75-1.25 6.25 2l10.875 23.25L1368.531313 412.75z m147.5 54l25.125-11.75-47.875-102.625-25.125 11.75 47.875 102.625z m-43.375-135.875c12.875-6.5 25-12.125 28.625-13.75 4.125-1.5 5.75-0.875 7.5 2.75L1569.781313 450.625l28-13.125-61.25-131c-6.5-13.875-11.875-18.875-22.875-18.625-11 0.25-23.75 6.125-43 15.125 1.875 7.625 2.75 19.125 2 27.875z m97.75 256.25c-3.5-1.875-6.75-3-10.25-5 20.875-54 49.625-91.375 77.5-121.75-9.25-2.75-22.25-9.625-29.875-16.625-13.375 16-27 34.25-39.625 55.75l-8.875-18.875-111.375 52 8.625 18.625c-24.75-3.5-49.5-5.25-72.25-4.875-0.5 9.5-3.375 23.25-6.625 33.25 58.625-3.375 128.125 5.875 175.375 32.125l17.375-24.625z m-201.375 91.75c15-21.125 32.875-52.125 40.25-71.5l-34.75-11.75c-6.25 18.875-23.25 50.75-37.375 73.75l31.875 9.5zM1075.156313 437.375l-128.875 60.125c-63 29.375-77.25 50.125-54.125 99.75L974.031313 772.75l35-16.25-25.625-55 178.375-83.125 40.75 87.375L972.281313 812.875l15.5 33.125 265-123.625-79.75-171.125-35 16.25 8.125 17.5-178.375 83.125-40.875-87.75c-10.5-22.625-5.5-30.75 33.875-49l129.625-60.375c38.625-18 49.5-9.75 80.375 44.125 6.75-10.25 19.375-23.25 28.25-29.625-38.625-63.875-61.25-77.25-123.875-48.125z m439.625-206.25c-26.875 9.875-88.125 36.25-126 53.875-43.625 20.375-71.125 38.5-88.875 65-10.25 15-17.25 32.375-25.25 36.125-12 5.625-39-7.5-67.25-22.625l-7.375 37.5c23.625 9.75 46.625 16.375 65.125 17l51.75 111-44.75 20.875 14.625 31.25L1363.531313 545.25l-65.375-140c5.75-6.625 10.5-17.375 19.875-31.5 16.125-25.25 45.75-41.75 85.375-60.25s96.75-41.625 135.125-54.125c-7.625-7-19.5-20.125-23.75-28.25z m60.75-39.875c-3.125 8.5-11.75 24.125-17.625 32.625 27 6.5 56.375 21.125 77.625 39.125l28-23.625c-25.875-21.25-60.125-39.5-88-48.125z m106.25 34.125l32.5 2.125c6.5-23 13.625-53.375 14.5-71.5l-35-3.625c-0.375 18-6.125 49.5-12 73zM1891.031313 93.25c-8.375-17.875-16.875-25.75-30.625-25.625-13.625-0.75-31.5 6.75-58.25 19.625 3 9.25 5.625 26.25 5.125 36.625 16.75-8.75 35.125-16.875 39.875-19 5.625-2.125 8.5-1.75 11.25 4.125l37.625 80.875-67 31.25c-24.25-41.5-54.5-83.625-90.75-107.125-2.625 8.75-12.25 25.125-18 31.875 51 34.25 85.25 101.125 109.625 153.25L1891.031313 430.125l128.875-60.125L1891.031313 93.25zM1884.998813 333.17l23.93 51.31875 64.12125-29.89875-23.93-51.31875z"  horiz-adv-x="2118" />

    
    <glyph glyph-name="yishiyong" unicode="&#58956;" d="M22.031313 896l2048-1024V896zM1111.406313 472.625c38.375-17.875 49.25-9.75 80 43.875 6.75-10.25 19.25-23.125 28.125-29.5-38.5-63.625-61.125-77-123.375-47.875L967.906313 499c-62.75 29.25-76.875 50-53.875 99.25l81.5 174.75 34.75-16.25-25.5-54.75 177.625-82.875 40.625 87-229.25 106.875 15.375 33 263.875-123.125L1193.531313 552.5l-34.75 16.25 8.125 17.375-177.5 82.875-40.75-87.375c-10.5-22.5-5.375-30.625 33.75-48.875l129-60.125zM1472.156313 645.125c-21.5-19.5-45.125-39-69.875-56.125l-117.5-252-31.875 14.875L1347.781313 555.25c-18.375-10-36.875-18.5-54.5-24.875 0.5 9.5-0.5 32-2.625 42.75 51.125 16.75 109.625 53.5 154.875 97.25l26.625-25.25z m26-246c-14-22.625-30.375-42.375-53-56 26.375-34.375 64.75-66.375 112.5-94.875-9.875-4.25-25.375-13.75-34.125-21.125-46.625 30.625-83.5 64.125-109.125 101.125-26.125-8.625-57.625-11-97.75-5.125-0.375 9.5-3.625 27.25-7.625 37.5 35.875-7.375 64.375-6.625 86.625-0.625-12.125 25.125-19.625 51.5-22 79.625l31.625-4.125c2.375-21.375 9.375-42.375 20.375-62.5 16.5 10.875 29 25.25 39.25 41.75L1380.781313 454l47.5 101.875 86.25-40.25 14.5 31.125-95.375 44.5 14.375 30.875 95.375-44.5 16.75 35.875 33.375-15.5-16.75-35.875 100-46.625-14.375-30.875-100 46.625-14.5-31.125 89.5-41.75-47.5-101.875-91.75 42.625zM1480.031313 441.5l5.25 11.25 16.25 34.75-55.5 26-21.5-46 55.5-26z m54.75 30.5l-16.25-34.75c-1.75-3.625-3.5-7.625-5.25-11.25l57.25-26.75 21.5 46-57.25 26.75zM1896.156313 105.375c-9.125-19.625-18.625-27.5-34-26.5-16 0.875-37.375 9.875-70.5 25.75 2.75 9.75 4.25 27.125 4 37.875 22.75-11.875 46.75-22.75 53.625-25.875 6.5-3 10.125-2 13.25 4.875l30.25 64.875-87.75 40.875-48.375-103.625-33.75 15.75 48.375 103.625-83.375 38.875c-24.375-37.125-56.375-71.75-96.5-88.75-2 8.875-10.375 26.875-16.125 34.5 60 25.5 93.5 87.875 117.375 139l60.125 129 267.125-124.625-123.75-265.625z m-109.875 169.5l25 53.625-78.625 36.75-6.75-14.5c-5.75-12.375-12.375-25.625-19.75-38.5l80.125-37.375z m-15.125 173L1747.281313 396.75l78.625-36.625 23.875 51.125-78.625 36.625z m200.125-93.25L1883.531313 395.5l-23.875-51.125 87.75-40.875 23.875 51.125z m-63.625-136.375l25 53.625-87.75 40.875-25-53.625 87.75-40.875z"  horiz-adv-x="2118" />

    
    <glyph glyph-name="yiguoqi" unicode="&#58957;" d="M22.031313 896l2048-1024V896zM1094.281313 472.625c38.375-17.875 49.25-9.75 80 43.875 6.75-10.25 19.25-23.125 28.125-29.5-38.5-63.625-61.125-77-123.375-47.875L950.656313 499c-62.75 29.25-76.875 50-53.875 99.25l81.5 174.75 34.75-16.25-25.5-54.75 177.625-82.875 40.625 87-229.125 106.875 15.375 33L1256.031313 722.875l-79.5-170.375-34.75 16.25 8.125 17.375L972.156313 669l-40.75-87.375c-10.5-22.5-5.375-30.625 33.75-48.875l129.125-60.125zM1308.406313 413.375c4.5-7.375 9.25-16.25 17.25-27.5 16.625-25 47.75-42.5 87.625-61.125 39.875-18.625 97.625-41.5 134.75-53.625-8.75-7.375-22.25-22.25-27.75-32.125-25.75 10.25-88.375 36.75-123.5 53.125-45 21-73.125 39-92.125 66.375-11.375 16.375-17.75 33.875-25.75 37.625-11.25 5.25-38.375-9.5-65.125-25.25l-8.5 44.125c27.25 11.125 52.625 17.375 71.625 16.5l40.875 87.75-46 21.5 14.75 31.5 79-36.875-57.125-122zM1367.281313 587.625c-1.625 22-12.75 58.875-23.5 86.875l34.25 5.25c11.5-27.375 23.375-63.375 26.375-85.5l-37.125-6.625z m175.875-88.25l-136.25 63.625 14.875 31.875 136.25-63.625 28.75 61.625 34.5-16-28.75-61.625 47.125-22-14.875-31.875-47.125 22-61.5-132c-9.75-21-19.25-28.125-35.75-26.625-16.25 1-40 10.75-73.75 26.5 3.125 10.5 4.75 28.25 4.5 39.875 24.125-12.625 49.875-24.625 57.25-27.625 7-2.875 10.5-2.25 13.5 4.25l61.25 131.625zM1437.281313 521c8.125-29.875 17.125-70.25 18.5-93.75l-36.375-4.25c-1 23.375-8.625 64.875-15.875 95.625l33.75 2.375zM1664.906313 241.75c-25.75-21.125-59.75-39.25-87.625-47.875-3.125 8.5-11.75 24-17.5 32.5 26.875 6.5 56.125 21 77.375 39l27.75-23.625z m104-30.75L1592.281313 293.375l13.75 29.375 33.75-15.75 65.875 141.375-29.375 13.75 13.75 29.375 29.375-13.75 19.5 41.75 30.5-14.25-19.625-41.75 56.5-26.375 19.5 41.75 31.125-14.5-19.5-41.75 26.125-12.125-13.75-29.375-26.125 12.125-65.875-141.375 24.625-11.5-13.5-29.375z m-32.75 223.125L1723.531313 406.875l56.5-26.375 12.625 27.25-56.5 26.375z m-39.125-83.75L1753.531313 324l14 30.125-56.5 26.375-14-30.125zM1670.156313 292.75l56.5-26.375 14.5 31.125L1684.781313 324l-14.625-31.25z m45.375-62.625c6.5-22.875 13.625-53.125 14.5-71.25l-34.75-3.625c-0.5 17.875-6.125 49.25-12 72.625l32.25 2.25z m176-133.75c-8.25-17.75-16.875-25.75-30.5-25.5-13.625-0.75-31.375 6.625-58 19.5 3 9.25 5.5 26.125 5.125 36.5 16.75-8.625 35-16.75 39.75-19 5.625-2.125 8.5-1.75 11.125 4.125l37.5 80.5-66.75 31.125c-24.125-41.25-54.25-83.25-90.375-106.625-2.625 8.75-12.125 25.125-17.875 31.75 50.75 34.125 84.875 100.75 109.125 152.625l60.875 130.5 128.375-59.875-128.375-275.625z m19.25 126.5l24.625 52.875-63.75 29.75-9-19.25c-4.875-10.5-10.25-22.125-16.5-33.375l64.625-30zM1909.406313 386.5l-23.875-51.125 63.75-29.75 23.875 51.125-63.75 29.75z"  horiz-adv-x="2118" />

    
    <glyph glyph-name="bangzhuzhongxin2" unicode="&#58958;" d="M421.624242 719.90303v-180.880808H240.743434v-490.925252h542.513132V719.90303zM292.331313 48.09697h490.925253V539.022222zM240.743434 539.022222h180.880808V719.90303zM613.107071 209.713131h45.252525v-45.252525h-45.252525zM658.403556 507.548444v-258.585858h-45.252526v258.585858z"  horiz-adv-x="1024" />

    
    <glyph glyph-name="xinshoubidu1" unicode="&#58959;" d="M188.767677 713.69697l323.232323-64.646465 323.232323 64.646465v-594.747475l-323.232323-64.646465-323.232323 64.646465zM188.767677 713.69697v-594.747475l323.232323-64.646465V649.050505zM480.323232 258.068687h51.717172v-45.252525h-51.717172zM564.880808 456.016162c0 30.254545-18.618182 51.329293-55.466667 51.329293-26.634343 0-50.424242-12.541414-73.050505-37.236364l-33.228282 30.771717c29.220202 32.193939 65.034343 54.432323 112.872727 54.432323 62.448485 0 104.727273-34.779798 104.727273-94.642424 0-76.541414-99.684848-89.6-89.212122-163.684848h-51.329293c-13.575758 83.006061 84.686869 104.080808 84.686869 159.030303z"  horiz-adv-x="1024" />

    
    <glyph glyph-name="guanyuwomen1" unicode="&#58960;" d="M370.036364 86.884848h-155.151516v155.151516zM512 384m-335.90303 0a335.90303 335.90303 0 1 1 671.80606 0 335.90303 335.90303 0 1 1-671.80606 0ZM512 719.90303c-17.583838 0-34.909091-1.422222-51.717172-4.008081C621.252525 691.070707 744.468687 551.951515 744.468687 384S621.252525 76.929293 460.282828 52.105051c16.808081-2.585859 34.133333-4.008081 51.717172-4.008081 185.535354 0 335.90303 150.367677 335.90303 335.90303S697.535354 719.90303 512 719.90303zM382.965657 458.214141m-38.787879 0a38.787879 38.787879 0 1 1 77.575757 0 38.787879 38.787879 0 1 1-77.575757 0ZM628.105051 458.214141m-38.787879 0a38.787879 38.787879 0 1 1 77.575757 0 38.787879 38.787879 0 1 1-77.575757 0ZM512 138.60202c64.258586 0 116.363636 52.105051 116.363636 116.363637H395.636364c0-64.258586 52.105051-116.363636 116.363636-116.363637z"  horiz-adv-x="1024" />

    
    <glyph glyph-name="wode_yixuan" unicode="&#58961;" d="M514.844444 384m-512 0a512 512 0 1 1 1024 0 512 512 0 1 1-1024 0ZM514.844444 384m-265.481481 0a265.481481 265.481481 0 1 1 530.962963 0 265.481481 265.481481 0 1 1-530.962963 0ZM514.844444-128c121.995062 0 233.876543 42.603457 321.864692 113.777778C789.807407 118.392099 663.387654 213.333333 514.844444 213.333333S239.881481 118.392099 192.979753-14.222222c87.988148-71.174321 199.86963-113.777778 321.864691-113.777778zM609.659259 352.395062c-10.49284 0-18.962963-8.470123-18.962963-18.962963 0-41.844938-34.006914-75.851852-75.851852-75.851852s-75.851852 34.006914-75.851851 75.851852c0 10.49284-8.470123 18.962963-18.962963 18.962963s-18.962963-8.470123-18.962963-18.962963c0-62.830617 50.94716-113.777778 113.777777-113.777778s113.777778 50.94716 113.777778 113.777778c0 10.49284-8.470123 18.962963-18.962963 18.962963zM363.140741 118.518519h303.407407v-151.703704zM363.140741-33.185185V118.518519h303.407407z"  horiz-adv-x="1047" />

    
    <glyph glyph-name="wode_weixuan" unicode="&#58962;" d="M514.844444 384m-512 0a512 512 0 1 1 1024 0 512 512 0 1 1-1024 0ZM514.844444 384m-265.481481 0a265.481481 265.481481 0 1 1 530.962963 0 265.481481 265.481481 0 1 1-530.962963 0ZM514.844444-128c121.995062 0 233.876543 42.603457 321.864692 113.777778C789.807407 118.392099 663.387654 213.333333 514.844444 213.333333S239.881481 118.392099 192.979753-14.222222c87.988148-71.174321 199.86963-113.777778 321.864691-113.777778zM609.659259 352.395062c-10.49284 0-18.962963-8.470123-18.962963-18.962963 0-41.844938-34.006914-75.851852-75.851852-75.851852s-75.851852 34.006914-75.851851 75.851852c0 10.49284-8.470123 18.962963-18.962963 18.962963s-18.962963-8.470123-18.962963-18.962963c0-62.830617 50.94716-113.777778 113.777777-113.777778s113.777778 50.94716 113.777778 113.777778c0 10.49284-8.470123 18.962963-18.962963 18.962963zM363.140741 118.518519h303.407407v-151.703704zM363.140741-33.185185V118.518519h303.407407z"  horiz-adv-x="1047" />

    
    <glyph glyph-name="shouye_yixuan" unicode="&#58963;" d="M514.844444 384m-512 0a512 512 0 1 1 1024 0 512 512 0 1 1-1024 0ZM363.39358 158.84642S457.702716 124.839506 569.204938 179.832099c115.041975 56.636049 81.035062 121.236543 104.549136 114.789136 0 0 7.458765-14.538272 1.769877-22.123457-5.815309-7.585185 7.332346 8.090864 21.491358 12.009876 14.285432 3.919012-0.25284-21.238519-9.987161-23.261234-9.734321-2.022716 26.295309 8.596543 25.91605-3.792593-0.25284-12.389136-19.974321-11.377778-27.306667-10.745679-7.205926 0.632099-15.42321-77.242469-174.20642-136.533333-158.65679-59.038025-140.578765-58.658765-148.037531 48.671605zM447.841975 408.272593l-97.848889-12.009877s51.958519-177.746173-78.253827-231.600988c-76.231111-31.225679-127.683951-56.50963-156.254815-101.262222C209.414321-53.285926 353.40642-128 514.844444-128c3.539753 0 6.953086 0 10.49284 0.12642 36.535309 70.036543 63.336296 158.65679 37.673086 247.656296C506.500741 314.089877 447.841975 408.272593 447.841975 408.272593zM423.442963 386.149136s125.787654-192.031605 71.55358-341.839013c-31.478519-86.344691-96.711111-126.293333-146.394074-144.624197C400.687407-118.265679 456.564938-128 514.844444-128c7.332346 0 14.538272 0.12642 21.744198 0.505679 16.813827 34.765432 30.59358 76.104691 36.661728 123.764938 21.744198 175.597037-110.743704 384.948148-110.743703 384.948148s-22.249877 57.773827-39.063704 4.930371zM312.32 832.790123s-62.704198-107.077531 64.474074-205.811358l30.72 26.674568L312.32 832.790123zM421.167407 643.034074S349.613827 799.920988 312.32 832.790123c0 0-14.285432-30.72-7.585185-74.714074 6.700247-43.488395 59.164444-108.847407 116.432592-115.041975zM309.159506 658.583704l616.043457 20.48s-64.853333-275.595062-350.309136-296.075062c-225.785679-16.434568-224.900741 13.400494-224.900741 13.400494S292.345679 587.030123 309.159506 658.583704zM439.877531 619.014321c24.904691-16.055309 31.984198-49.303704 16.055309-74.208395-16.055309-24.904691-49.303704-31.984198-74.208396-16.055309-24.904691 16.055309-32.489877 49.303704-16.055308 74.208395 15.928889 24.904691 49.303704 31.984198 74.208395 16.055309zM438.992593 622.554074c24.904691-16.055309 32.489877-49.303704 16.055308-74.714074-16.055309-24.904691-49.303704-31.984198-74.208395-15.54963-24.904691 16.055309-31.984198 49.303704-16.055308 74.208395 15.928889 24.904691 49.303704 32.110617 74.208395 16.055309zM414.97284 604.728889c11.124938-7.079506 14.285432-21.744198 7.079506-32.489877-7.079506-11.124938-21.744198-14.285432-32.489877-7.079506-11.124938 7.079506-14.285432 21.744198-7.079506 32.869136 7.205926 10.745679 21.870617 13.906173 32.489877 6.700247zM409.916049 525.084444c17.066667 0 33.754074 8.470123 43.614815 23.640494 16.055309 24.399012 8.849383 56.50963-15.549629 72.438519l-8.849383 4.424691c3.160494-11.630617 1.769877-24.525432-3.792593-35.90321 1.264198-5.941728 0.25284-12.136296-3.286913-17.445926-4.551111-7.079506-12.136296-10.872099-19.847902-10.872098-2.907654 0-5.688889 0.505679-8.470123 1.643456-4.93037-1.517037-10.11358-2.275556-15.42321-2.275555-6.320988 0-12.894815 1.137778-18.962963 3.539753 3.160494-12.009877 10.619259-23.514074 22.249877-30.72 8.722963-5.688889 18.583704-8.470123 28.318024-8.470124zM558.964938 700.807901c24.904691-16.055309 31.984198-49.303704 16.055309-74.208395-16.055309-25.283951-49.303704-31.984198-74.208395-16.055308-24.904691 16.055309-32.489877 49.303704-16.055309 74.208395 15.928889 24.904691 49.303704 31.984198 74.208395 16.055308zM558.08 704.347654c25.283951-16.434568 32.489877-49.809383 16.055309-74.714074-16.055309-24.904691-49.303704-31.984198-74.208395-16.055308-24.904691 16.434568-31.984198 49.303704-16.055309 74.714074 15.928889 24.904691 49.303704 32.110617 74.208395 16.055308zM534.565926 686.522469c10.619259-7.079506 13.779753-21.744198 6.700247-32.489876-6.700247-11.124938-21.364938-14.285432-32.489877-7.079507-11.124938 7.079506-14.285432 21.744198-7.079506 32.489877 7.079506 11.124938 21.744198 14.285432 32.869136 7.079506zM528.750617 606.751605c17.193086 0 34.006914 8.470123 43.994074 23.766914 16.055309 24.399012 8.849383 56.50963-15.549629 72.059259l-8.849383 4.93037c3.034074-11.504198 1.769877-24.399012-3.792593-35.77679 1.264198-5.941728 0.25284-12.262716-3.286913-17.572346-4.298272-7.079506-11.757037-10.872099-19.468642-10.872098-2.907654 0-5.941728 0.505679-8.722963 1.643456-5.05679-1.517037-10.24-2.275556-15.42321-2.275555-6.320988 0-12.894815 1.137778-18.962963 3.539753 3.160494-12.389136 10.619259-23.514074 22.249877-31.099259 8.470123-5.688889 18.204444-8.343704 27.812345-8.343704zM111.818272 695.877531s39.063704-117.443951 197.467654-86.723951v40.83358l-197.467654 45.890371zM326.352593 653.400494s-165.104198 49.303704-214.407902 42.477037c0 0 13.653333-30.59358 51.073581-54.486914 37.293827-23.766914 120.730864-27.053827 163.334321 12.009877zM837.594074 676.02963l57.520988-74.840494s30.59358 50.567901 30.59358 79.518024c0 0.12642-81.287901-4.677531-88.114568-4.67753zM717.874568 420.156049s-156.634074-22.123457-212.764445 71.553581c-0.12642 0 90.010864-80.023704 212.764445-71.553581zM594.994568 31.794568s34.891852-8.975802-2.528395-26.800988C557.82716-11.567407 455.42716 48.355556 455.42716 48.355556c-7.711605-13.779753-96.458272-85.206914-153.22074-130.212346C366.933333-111.439012 438.992593-128 514.844444-128c18.078025 0 36.02963 0.884938 53.601976 2.781235 24.019753 37.546667 42.729877 78.127407 50.315061 116.053333 17.951605 40.96-23.766914 40.96-23.766913 40.96zM411.180247 48.608395l-154.990617-94.561975-5.43605-8.849383c47.786667-28.823704 100.503704-50.062222 156.760494-61.945679 61.56642 71.300741 93.929877 182.297284 93.929877 182.297284l-55.371852 8.470123-34.891852-25.41037zM718.506667 182.360494h-142.854321c-12.009877 0-21.870617-9.860741-21.870618-21.870617v-24.904692c0-12.009877 9.860741-21.870617 21.870618-21.870617h142.854321c12.009877 0 21.870617 9.860741 21.870617 21.870617v24.904692c0 12.009877-9.860741 21.870617-21.870617 21.870617zM717.368889 186.911605h-142.854321c-12.009877 0-21.870617-9.860741-21.870617-21.870617v-24.904692c0-12.009877 9.860741-21.870617 21.870617-21.870617h142.854321c12.009877 0 21.870617 9.860741 21.870617 21.870617v24.904692c0.12642 12.009877-9.734321 21.870617-21.870617 21.870617zM718.506667 106.508642h-142.854321c-12.009877 0-21.870617-9.860741-21.870618-21.870617v-24.904692c0-12.009877 9.860741-21.870617 21.870618-21.870617h142.854321c12.009877 0 21.870617 9.860741 21.870617 21.870617v24.904692c0 11.883457-9.860741 21.870617-21.870617 21.870617zM717.368889 110.933333h-142.854321c-12.009877 0-21.870617-9.860741-21.870617-21.870617V64.158025c0-12.009877 9.860741-21.870617 21.870617-21.870618h142.854321c12.009877 0 21.870617 9.860741 21.870617 21.870618v24.904691c0.12642 12.009877-9.734321 21.870617-21.870617 21.870617zM718.506667 31.794568h-142.854321c-12.009877 0-21.870617-9.860741-21.870618-21.870617v-24.904692c0-12.009877 9.860741-21.870617 21.870618-21.870617h142.854321c12.009877 0 21.870617 9.860741 21.870617 21.870617v24.904692c0 12.009877-9.860741 21.870617-21.870617 21.870617zM717.368889 35.207901h-142.854321c-12.009877 0-21.870617-9.860741-21.870617-21.870617v-24.904691c0-12.009877 9.860741-21.870617 21.870617-21.870618h142.854321c12.009877 0 21.870617 9.860741 21.870617 21.870618v24.904691c0.12642 12.009877-9.734321 21.870617-21.870617 21.870617zM414.72 175.280988s23.261235-97.34321 130.591605-160.426667c110.617284-65.359012 146.014815-1.137778 153.6-24.399012 0 0-7.964444-14.538272-17.698765-13.653334-5.18321 0.379259-1.264198-0.25284 5.436049-2.275555 5.18321-2.022716 11.757037-4.93037 16.308148-9.355062 11.251358-9.481481-17.825185-11.377778-24.778272-4.298272-6.953086 7.079506 21.491358-17.319506 11.124939-23.640493-10.619259-6.573827-20.60642 10.11358-24.019753 16.940247-1.517037 3.286914-19.721481-4.045432-54.486914-0.25284-34.891852 4.424691-86.597531 20.73284-155.243457 70.668642-136.406914 100.630123-126.419753 85.459753-40.83358 150.692346z"  horiz-adv-x="1047" />

    
    </font>
</defs>
</svg>
